<svg width="145" height="153" viewBox="0 0 145 153" fill="none" xmlns="http://www.w3.org/2000/svg">
<path d="M145 120.107H1V120.184H145V120.107Z" fill="#EBEBEB"/>
<path d="M130.571 125.027H121.032V125.104H130.571V125.027Z" fill="#EBEBEB"/>
<path d="M117.407 125.027H97.0137V125.104H117.407V125.027Z" fill="#EBEBEB"/>
<path d="M85.7669 122.189H80.2402V122.266H85.7669V122.189Z" fill="#EBEBEB"/>
<path d="M25.9849 122.703H16.1094V122.78H25.9849V122.703Z" fill="#EBEBEB"/>
<path d="M46.5037 122.703H28.5469V122.78H46.5037V122.703Z" fill="#EBEBEB"/>
<path d="M65.8396 123.992H55.2383V124.069H65.8396V123.992Z" fill="#EBEBEB"/>
<path d="M69.2564 106.47H13.6465C13.2108 106.469 12.7933 106.285 12.4855 105.958C12.1777 105.63 12.0049 105.187 12.0049 104.724V21.7306C12.0087 21.2708 12.1832 20.8311 12.4906 20.507C12.7979 20.183 13.2133 20.0008 13.6465 20H69.2564C69.6925 20 70.1108 20.1839 70.4192 20.5114C70.7276 20.8388 70.9009 21.2829 70.9009 21.7459V21.7459V104.724C70.9009 104.953 70.8583 105.18 70.7757 105.392C70.6931 105.604 70.5719 105.797 70.4192 105.959C70.2665 106.121 70.0852 106.249 69.8857 106.337C69.6862 106.425 69.4724 106.47 69.2564 106.47V106.47ZM13.6465 20.0612C13.2299 20.062 12.8307 20.2382 12.5364 20.5512C12.2422 20.8642 12.0769 21.2884 12.0769 21.7306V104.724C12.0769 105.166 12.2422 105.591 12.5364 105.903C12.8307 106.216 13.2299 106.393 13.6465 106.394H69.2564C69.673 106.392 70.0721 106.216 70.3666 105.903C70.6612 105.59 70.8274 105.166 70.8289 104.724V21.7306C70.8274 21.2883 70.6612 20.8646 70.3666 20.5519C70.0721 20.2392 69.673 20.0628 69.2564 20.0612H13.6465Z" fill="#EBEBEB"/>
<path d="M131.553 106.47H75.9404C75.5047 106.468 75.0873 106.284 74.7792 105.957C74.4712 105.63 74.2974 105.187 74.2959 104.724V21.7306C74.3004 21.2705 74.4756 20.8308 74.7834 20.5068C75.0913 20.1829 75.5069 20.0008 75.9404 20H131.553C131.986 20.0016 132.4 20.1841 132.707 20.5081C133.014 20.832 133.188 21.2713 133.192 21.7306V104.724C133.192 104.953 133.15 105.18 133.068 105.391C132.986 105.603 132.865 105.795 132.713 105.957C132.561 106.119 132.38 106.248 132.181 106.336C131.982 106.424 131.769 106.47 131.553 106.47V106.47ZM75.9404 20.0612C75.5238 20.0628 75.1247 20.2392 74.8301 20.5519C74.5356 20.8646 74.3694 21.2883 74.3679 21.7306V104.724C74.3694 105.166 74.5356 105.59 74.8301 105.903C75.1247 106.216 75.5238 106.392 75.9404 106.394H131.553C131.97 106.392 132.369 106.216 132.663 105.903C132.958 105.59 133.124 105.166 133.126 104.724V21.7306C133.124 21.2883 132.958 20.8646 132.663 20.5519C132.369 20.2392 131.97 20.0628 131.553 20.0612H75.9404Z" fill="#EBEBEB"/>
<path d="M94.1481 26.0469H19.5244V73.9845H94.1481V26.0469Z" fill="#E6E6E6"/>
<path d="M93.6436 26.0469H18.3604V73.9845H93.6436V26.0469Z" fill="#F5F5F5"/>
<path d="M91.5507 28.4414H20.4492V71.5847H91.5507V28.4414Z" fill="#FAFAFA"/>
<path d="M85.9265 71.5855L70.6193 28.4453H64.1738L79.481 71.5855H85.9265Z" fill="white"/>
<path d="M77.6534 71.5855L62.3434 28.4453H57.9053L73.2154 71.5855H77.6534Z" fill="white"/>
<path d="M50.6085 71.5855L35.2984 28.4453H30.8604L46.1676 71.5855H50.6085Z" fill="white"/>
<path d="M38.3535 28.4453H35.8594V71.5886H38.3535V28.4453Z" fill="#E6E6E6"/>
<path d="M77.8124 28.4453H75.3184V71.5886H77.8124V28.4453Z" fill="#E6E6E6"/>
<path d="M37.9017 26.6631H34.751V73.1086H37.9017V26.6631Z" fill="#F5F5F5"/>
<path d="M77.3636 26.6592H74.2129V73.1047H77.3636V26.6592Z" fill="#F5F5F5"/>
<path d="M20.6739 28.4453H20.4521V71.5886H20.6739V28.4453Z" fill="#E6E6E6"/>
<path d="M96.4119 22.9629H17.4913C17.337 22.9629 17.2119 23.0957 17.2119 23.2595V23.2778C17.2119 23.4416 17.337 23.5744 17.4913 23.5744H96.4119C96.5662 23.5744 96.6913 23.4416 96.6913 23.2778V23.2595C96.6913 23.0957 96.5662 22.9629 96.4119 22.9629Z" fill="#E6E6E6"/>
<path d="M94.148 24.1244C94.2438 24.1228 94.3353 24.0817 94.403 24.0098C94.4707 23.9379 94.5094 23.8408 94.5109 23.7391V22.8004C94.5109 22.698 94.4728 22.5997 94.4048 22.5269C94.3368 22.4542 94.2446 22.4129 94.148 22.4121C94.1003 22.4117 94.0529 22.4214 94.0087 22.4406C93.9645 22.4598 93.9244 22.4882 93.8906 22.5241C93.8568 22.5599 93.8301 22.6025 93.812 22.6495C93.7939 22.6964 93.7848 22.7467 93.7852 22.7974V23.7361C93.7848 23.7868 93.7939 23.8371 93.812 23.884C93.8301 23.9309 93.8568 23.9736 93.8906 24.0094C93.9244 24.0453 93.9645 24.0736 94.0087 24.0928C94.0529 24.1121 94.1003 24.1217 94.148 24.1213V24.1244Z" fill="#E6E6E6"/>
<path d="M21.5455 24.1244C21.5933 24.1248 21.6407 24.1151 21.6849 24.0959C21.7291 24.0767 21.7692 24.0483 21.803 24.0125C21.8368 23.9766 21.8635 23.934 21.8816 23.887C21.8997 23.8401 21.9088 23.7898 21.9084 23.7391V23.7391V22.8004C21.9092 22.7497 21.9004 22.6994 21.8827 22.6523C21.8649 22.6052 21.8386 22.5623 21.805 22.5262C21.7715 22.4901 21.7316 22.4614 21.6875 22.4418C21.6435 22.4222 21.5962 22.4121 21.5484 22.4121V22.4121C21.4519 22.4129 21.3596 22.4542 21.2917 22.5269C21.2237 22.5997 21.1855 22.698 21.1855 22.8004V23.7391C21.187 23.8403 21.2253 23.9369 21.2924 24.0088C21.3596 24.0806 21.4503 24.122 21.5455 24.1244V24.1244Z" fill="#E6E6E6"/>
<path opacity="0.6" d="M92.8122 23.2686H17.5664V57.4743H92.8122V23.2686Z" fill="#EBEBEB"/>
<path d="M126.299 35.8418H107.251V56.5206H126.299V35.8418Z" fill="#E0E0E0"/>
<path d="M125.8 35.8418H106.104V56.5206H125.8V35.8418Z" fill="#F5F5F5"/>
<path d="M124.146 38.1865H107.75V54.1719H124.146V38.1865Z" fill="white"/>
<path d="M126.185 82.8838H120.854V118.389H126.185V82.8838Z" fill="#F0F0F0"/>
<path d="M125.16 118.389H66.4336V120.104H125.16V118.389Z" fill="#F0F0F0"/>
<path d="M120.851 82.8867H65.4111V118.392H120.851V82.8867Z" fill="#F5F5F5"/>
<path d="M126.185 81.3887H120.854V82.8869H126.185V81.3887Z" fill="#E6E6E6"/>
<path d="M120.851 81.3887H65.4111V82.8869H120.851V81.3887Z" fill="#F0F0F0"/>
<path d="M118.939 95.2943H67.3291V86.0449H118.939V95.2943ZM67.6747 94.9121H118.579V86.4088H67.6862L67.6747 94.9121Z" fill="#E0E0E0"/>
<path d="M118.939 115.245H67.3291V97.5654H118.939V115.245ZM67.6747 114.866H118.579V97.9538H67.6862L67.6747 114.866Z" fill="#E0E0E0"/>
<path d="M111.984 86.2217H74.2822V87.4386H111.984V86.2217Z" fill="#E0E0E0"/>
<path d="M111.984 97.7549H74.2822V98.9718H111.984V97.7549Z" fill="#E0E0E0"/>
<path d="M106.181 80.7402H85.6924V81.3885H106.181V80.7402Z" fill="#E0E0E0"/>
<path d="M106.181 80.7399H85.6924L87.6623 68.2861H108.151L106.181 80.7399Z" fill="#E0E0E0"/>
<path d="M105.8 80.7399H85.3115L87.2814 68.2861H107.77L105.8 80.7399Z" fill="#EBEBEB"/>
<path d="M86.089 79.7615L87.7652 69.1729C87.7749 69.1075 87.8064 69.0481 87.854 69.0054C87.9016 68.9627 87.9621 68.9397 88.0244 68.9405H106.744C106.779 68.9397 106.812 68.9461 106.844 68.9594C106.876 68.9727 106.905 68.9927 106.929 69.018C106.954 69.0434 106.973 69.0736 106.986 69.1071C107 69.1405 107.006 69.1764 107.006 69.2126C107.009 69.2298 107.009 69.2474 107.006 69.2646L105.33 79.8532C105.321 79.9185 105.289 79.978 105.241 80.0207C105.194 80.0633 105.133 80.0864 105.071 80.0856H86.3511C86.3169 80.0864 86.283 80.08 86.2512 80.0667C86.2195 80.0533 86.1905 80.0334 86.1661 80.0081C86.1417 79.9827 86.1223 79.9524 86.1091 79.919C86.0958 79.8856 86.089 79.8497 86.089 79.8135C86.0862 79.7963 86.0862 79.7787 86.089 79.7615V79.7615Z" fill="#FAFAFA"/>
<path d="M101.544 80.7402H81.0557V81.3885H101.544V80.7402Z" fill="#F0F0F0"/>
<path d="M49.6925 77.4463H38.7284C36.2573 77.4463 34.0282 79.7181 33.4465 82.8308L31.6119 92.6152H27.8477C26.0535 92.6152 24.5098 94.245 24.1729 96.5015L23.6717 99.8649C22.9143 100.003 22.2634 100.742 22.0791 101.724H44.7159C47.1841 101.724 49.4103 99.4552 49.9921 96.3456L52.6244 82.2804C53.0881 79.7487 51.6884 77.4463 49.6925 77.4463ZM27.4445 99.8038H24.6596L25.1261 96.7308C25.3767 95.0705 26.5172 93.8628 27.8391 93.8628H31.3729L30.9524 96.2508C30.5521 98.3086 29.0775 99.8038 27.4445 99.8038Z" fill="#E6E6E6"/>
<path d="M44.2402 101.697H45.0351L46.5414 120.107H45.7465L44.2402 101.697Z" fill="#E0E0E0"/>
<path d="M41.2568 101.697H42.0517L43.558 120.107H42.7631L41.2568 101.697Z" fill="#E0E0E0"/>
<path d="M25.5287 101.697H24.7338L23.2275 120.107H24.0224L25.5287 101.697Z" fill="#E0E0E0"/>
<path d="M28.513 101.697H27.7182L26.2119 120.107H27.0068L28.513 101.697Z" fill="#E0E0E0"/>
<path d="M73.0005 133.915C103.84 133.915 128.841 132.365 128.841 130.453C128.841 128.542 103.84 126.992 73.0005 126.992C42.1607 126.992 17.1602 128.542 17.1602 130.453C17.1602 132.365 42.1607 133.915 73.0005 133.915Z" fill="#F5F5F5"/>
<path d="M107.419 27.1855H38.5814C36.4357 27.1855 34.6963 29.0323 34.6963 31.3103V59.2755C34.6963 61.5535 36.4357 63.4002 38.5814 63.4002H107.419C109.565 63.4002 111.304 61.5535 111.304 59.2755V31.3103C111.304 29.0323 109.565 27.1855 107.419 27.1855Z" fill="#407BFF"/>
<path opacity="0.6" d="M107.419 27.1855H38.5814C36.4357 27.1855 34.6963 29.0323 34.6963 31.3103V59.2755C34.6963 61.5535 36.4357 63.4002 38.5814 63.4002H107.419C109.565 63.4002 111.304 61.5535 111.304 59.2755V31.3103C111.304 29.0323 109.565 27.1855 107.419 27.1855Z" fill="white"/>
<path opacity="0.9" d="M107.419 28.1025H38.5817C36.9131 28.1025 35.5605 29.5386 35.5605 31.31V59.2752C35.5605 61.0466 36.9131 62.4826 38.5817 62.4826H107.419C109.088 62.4826 110.441 61.0466 110.441 59.2752V31.31C110.441 29.5386 109.088 28.1025 107.419 28.1025Z" fill="white"/>
<path d="M66.1602 42.6267V40.4374H66.9522C67.0572 40.4339 67.1623 40.441 67.2661 40.4588C67.3561 40.474 67.4423 40.5083 67.5195 40.5597C67.5906 40.6136 67.6472 40.6864 67.6837 40.7707C67.7277 40.8657 67.7494 40.9706 67.747 41.0764C67.751 41.2514 67.6911 41.4212 67.58 41.5504C67.4965 41.6239 67.3999 41.6788 67.296 41.7119C67.1921 41.745 67.083 41.7556 66.9752 41.743H66.4453V42.6267H66.1602ZM66.4309 41.477H66.9522C67.0855 41.4899 67.2189 41.4532 67.3294 41.373C67.3678 41.3338 67.3976 41.2861 67.4165 41.2332C67.4354 41.1803 67.4431 41.1237 67.4389 41.0673C67.441 40.9837 67.4189 40.9015 67.3755 40.8318C67.3339 40.7688 67.2727 40.7233 67.2027 40.7034C67.1184 40.6856 67.0323 40.6784 66.9464 40.682H66.4194L66.4309 41.477Z" fill="#263238"/>
<path d="M68.0449 42.6264V41.0395H68.2753V41.281C68.3128 41.1957 68.3668 41.1196 68.4337 41.0578C68.4826 41.0242 68.5396 41.0062 68.5979 41.0059C68.6902 41.0079 68.78 41.0376 68.8571 41.0915L68.7707 41.3391C68.7139 41.3033 68.6495 41.2833 68.5835 41.281C68.5299 41.2802 68.4778 41.2997 68.4366 41.3361C68.3903 41.3723 68.3568 41.424 68.3416 41.4828C68.3128 41.5819 68.2982 41.685 68.2984 41.7886V42.6264H68.0449Z" fill="#263238"/>
<path d="M68.9142 41.8378C68.904 41.7174 68.9194 41.5961 68.9593 41.4828C68.9991 41.3696 69.0625 41.2673 69.1446 41.1835C69.2756 41.0661 69.4427 41.004 69.614 41.0092C69.7074 41.0058 69.8005 41.0231 69.8872 41.06C69.974 41.0968 70.0526 41.1524 70.118 41.2232C70.2543 41.3847 70.3247 41.5969 70.3139 41.8134C70.3198 41.9793 70.2903 42.1444 70.2275 42.2965C70.1686 42.4105 70.0808 42.5048 69.974 42.5686C69.8638 42.6331 69.7399 42.6667 69.614 42.6664C69.5202 42.6699 69.4267 42.6526 69.3395 42.6158C69.2522 42.5789 69.1731 42.5233 69.1072 42.4524C68.9692 42.2825 68.8999 42.0617 68.9142 41.8378ZM69.1734 41.8378C69.1617 42.0006 69.2057 42.1623 69.2972 42.2934C69.3365 42.3415 69.3852 42.3799 69.4399 42.4057C69.4947 42.4316 69.5541 42.4444 69.614 42.4432C69.6739 42.4449 69.7333 42.432 69.7877 42.4055C69.8421 42.379 69.8901 42.3396 69.9279 42.2904C70.0201 42.1572 70.0641 41.9933 70.0518 41.8286C70.0629 41.6683 70.0178 41.5093 69.9251 41.3822C69.8874 41.3336 69.8399 41.2945 69.786 41.2681C69.7321 41.2416 69.6734 41.2284 69.614 41.2294C69.5539 41.2289 69.4945 41.2424 69.4398 41.2688C69.3851 41.2952 69.3365 41.3339 69.2972 41.3822C69.2043 41.5126 69.1601 41.6749 69.1734 41.8378V41.8378Z" fill="#263238"/>
<path d="M70.561 42.7614L70.8086 42.798C70.8101 42.8325 70.8186 42.8662 70.8335 42.8968C70.8484 42.9274 70.8694 42.9542 70.895 42.9754C70.9699 43.0309 71.0602 43.0579 71.1514 43.0518C71.2469 43.0574 71.3417 43.0307 71.4221 42.9754C71.4858 42.9233 71.5314 42.8501 71.5517 42.7675C71.5699 42.6534 71.5767 42.5376 71.5718 42.422C71.5215 42.487 71.4582 42.5395 71.3865 42.5754C71.3148 42.6114 71.2364 42.63 71.1571 42.6299C71.0655 42.6338 70.9744 42.6146 70.8912 42.5736C70.8081 42.5327 70.7353 42.4712 70.679 42.3944C70.5659 42.2307 70.5072 42.0318 70.512 41.8288C70.5102 41.6849 70.5367 41.5422 70.5898 41.4099C70.6346 41.2867 70.7127 41.1803 70.8144 41.1041C70.9161 41.0335 71.0356 40.9973 71.1571 41.0002C71.2418 40.9982 71.3256 41.0177 71.4018 41.0571C71.4779 41.0964 71.5441 41.1545 71.5949 41.2264V41.0338H71.8281V42.4067C71.8389 42.5844 71.8144 42.7625 71.7561 42.9295C71.7071 43.0339 71.6286 43.1195 71.5315 43.1741C71.4153 43.2384 71.2851 43.2689 71.1542 43.2628C71.0015 43.2696 70.8505 43.2258 70.7222 43.1374C70.6682 43.0937 70.6252 43.0365 70.5971 42.9709C70.569 42.9053 70.5565 42.8333 70.561 42.7614V42.7614ZM70.7712 41.8074C70.7589 41.9692 70.8007 42.1305 70.8893 42.263C70.9243 42.3081 70.9682 42.3444 71.018 42.3692C71.0679 42.3941 71.1222 42.4069 71.1773 42.4067C71.2323 42.4071 71.2868 42.3944 71.3366 42.3695C71.3865 42.3446 71.4304 42.3082 71.4653 42.263C71.5539 42.1341 71.5958 41.9756 71.5834 41.8165C71.5947 41.66 71.5517 41.5044 71.4624 41.3793C71.4282 41.3329 71.3845 41.2954 71.3346 41.2696C71.2847 41.2438 71.2299 41.2304 71.1744 41.2304C71.1189 41.2304 71.0641 41.2438 71.0142 41.2696C70.9643 41.2954 70.9206 41.3329 70.8864 41.3793C70.8011 41.5028 70.7603 41.6547 70.7712 41.8074V41.8074Z" fill="#263238"/>
<path d="M72.208 42.6264V41.0395H72.424V41.281C72.4616 41.1949 72.5166 41.1187 72.5853 41.0578C72.633 41.0238 72.6891 41.0057 72.7466 41.0059C72.839 41.0065 72.9293 41.0363 73.0058 41.0915L72.9194 41.3391C72.8638 41.3029 72.8002 41.2829 72.735 41.281C72.6806 41.2805 72.6277 41.3 72.5853 41.3361C72.5406 41.3739 72.5075 41.425 72.4902 41.4829C72.464 41.5824 72.4504 41.6852 72.4499 41.7886V42.6264H72.208Z" fill="#263238"/>
<path d="M74.1928 42.1192L74.4549 42.1529C74.4206 42.3033 74.3394 42.4369 74.2245 42.532C74.0805 42.6325 73.909 42.679 73.7373 42.664C73.5656 42.649 73.4036 42.5735 73.277 42.4495C73.2085 42.366 73.1562 42.2691 73.1231 42.1641C73.0899 42.0592 73.0767 41.9483 73.084 41.8379C73.0737 41.6151 73.1437 41.3964 73.2798 41.2264C73.3443 41.1539 73.4226 41.0967 73.5095 41.0588C73.5964 41.0208 73.6899 41.0029 73.7838 41.0063C73.8751 41.0029 73.966 41.0203 74.0504 41.0572C74.1348 41.0941 74.2108 41.1497 74.2734 41.2203C74.4055 41.3922 74.4722 41.6103 74.4606 41.8318V41.9021H73.3461C73.3462 42.0493 73.3963 42.1916 73.4872 42.3027C73.5269 42.3478 73.5751 42.3834 73.6287 42.4071C73.6824 42.4308 73.7402 42.4421 73.7982 42.4403C73.8836 42.4432 73.9676 42.4163 74.0373 42.3639C74.1096 42.2993 74.1634 42.2146 74.1928 42.1192V42.1192ZM73.3605 41.6942H74.1957C74.1955 41.5837 74.1611 41.4762 74.0978 41.3885C74.0608 41.3387 74.0135 41.2987 73.9595 41.2717C73.9055 41.2446 73.8464 41.2312 73.7867 41.2325C73.7335 41.2317 73.6806 41.2421 73.6312 41.2631C73.5818 41.2841 73.5367 41.3153 73.4987 41.3548C73.4123 41.4442 73.3626 41.5662 73.3605 41.6942V41.6942Z" fill="#263238"/>
<path d="M74.6709 42.1562L74.9215 42.1134C74.9296 42.2074 74.9707 42.2947 75.0367 42.358C75.1162 42.4106 75.2079 42.4384 75.3016 42.4384C75.3953 42.4384 75.4871 42.4106 75.5666 42.358C75.5919 42.3368 75.6126 42.3099 75.627 42.2793C75.6415 42.2486 75.6493 42.2149 75.6501 42.1806C75.6499 42.1519 75.643 42.1238 75.6299 42.0986C75.6168 42.0735 75.598 42.0523 75.5752 42.0369C75.4929 41.9946 75.4058 41.9637 75.316 41.9452C75.184 41.9149 75.0548 41.872 74.9301 41.8168C74.8628 41.7861 74.8064 41.7337 74.7688 41.667C74.7311 41.6028 74.7111 41.5286 74.7112 41.4529C74.7115 41.3851 74.7271 41.3184 74.7567 41.2583C74.7862 41.1982 74.8289 41.1464 74.8811 41.1074C74.9305 41.0718 74.9849 41.045 75.0424 41.0279C75.1137 41.007 75.1873 40.9968 75.2613 40.9973C75.3671 40.9946 75.4724 41.0122 75.5723 41.0493C75.6494 41.0775 75.7173 41.1284 75.7682 41.1961C75.8141 41.2696 75.8436 41.3533 75.8546 41.4407L75.6069 41.4774C75.5977 41.4026 75.5629 41.3339 75.509 41.2848C75.4426 41.2354 75.3623 41.2116 75.2814 41.2175C75.1941 41.2113 75.1069 41.2326 75.0309 41.2786C75.0087 41.2948 74.9905 41.3162 74.9775 41.3411C74.9645 41.3661 74.9571 41.3939 74.956 41.4224C74.9559 41.456 74.9671 41.4885 74.9877 41.5141C75.0124 41.5487 75.0466 41.5743 75.0856 41.5875C75.1115 41.5875 75.1835 41.6211 75.3074 41.6547C75.4352 41.6891 75.5612 41.7309 75.6846 41.7801C75.7504 41.8102 75.8072 41.8588 75.8488 41.9207C75.8904 41.9889 75.9115 42.0689 75.9093 42.1501C75.9088 42.2403 75.8838 42.3284 75.8373 42.4039C75.7853 42.4864 75.711 42.5504 75.6242 42.5873C75.524 42.6324 75.4162 42.6553 75.3074 42.6546C75.1501 42.6668 74.9936 42.6214 74.8639 42.5262C74.7601 42.4311 74.6917 42.3 74.6709 42.1562V42.1562Z" fill="#263238"/>
<path d="M76.1104 42.1562L76.3609 42.1134C76.369 42.2074 76.4102 42.2947 76.4761 42.358C76.5556 42.4106 76.6474 42.4384 76.7411 42.4384C76.8347 42.4384 76.9265 42.4106 77.006 42.358C77.0314 42.3368 77.0521 42.3099 77.0665 42.2793C77.081 42.2486 77.0888 42.2149 77.0896 42.1806C77.0894 42.1519 77.0825 42.1238 77.0694 42.0986C77.0563 42.0735 77.0375 42.0523 77.0147 42.0369C76.9324 41.9946 76.8453 41.9637 76.7555 41.9452C76.6234 41.9149 76.4943 41.872 76.3696 41.8168C76.3023 41.7861 76.2459 41.7337 76.2083 41.667C76.1706 41.6028 76.1506 41.5286 76.1507 41.4529C76.151 41.3851 76.1666 41.3184 76.1961 41.2583C76.2257 41.1982 76.2684 41.1464 76.3206 41.1074C76.3699 41.0718 76.4244 41.045 76.4819 41.0279C76.5532 41.007 76.6268 40.9968 76.7008 40.9973C76.8065 40.9946 76.9119 41.0122 77.0118 41.0493C77.0889 41.0775 77.1568 41.1284 77.2076 41.1961C77.2536 41.2696 77.2831 41.3533 77.294 41.4407L77.0464 41.4774C77.0372 41.4026 77.0024 41.3339 76.9484 41.2848C76.8821 41.2354 76.8018 41.2116 76.7209 41.2175C76.6336 41.2113 76.5464 41.2326 76.4704 41.2786C76.4482 41.2948 76.4299 41.3162 76.4169 41.3411C76.4039 41.3661 76.3966 41.3939 76.3955 41.4224C76.3954 41.456 76.4066 41.4885 76.4272 41.5141C76.4519 41.5487 76.4861 41.5743 76.5251 41.5875C76.551 41.5875 76.623 41.6211 76.7468 41.6547C76.8747 41.6891 77.0006 41.7309 77.1241 41.7801C77.1899 41.8102 77.2467 41.8588 77.2883 41.9207C77.3299 41.9889 77.351 42.0689 77.3488 42.1501C77.3483 42.2403 77.3233 42.3284 77.2768 42.4039C77.2248 42.4864 77.1505 42.5504 77.0636 42.5873C76.9635 42.6324 76.8557 42.6553 76.7468 42.6546C76.5895 42.6668 76.433 42.6214 76.3033 42.5262C76.1996 42.4311 76.1312 42.3 76.1104 42.1562V42.1562Z" fill="#263238"/>
<path d="M77.7236 42.6271V42.3213H78.0116V42.6271H77.7236Z" fill="#263238"/>
<path d="M78.5244 42.6271V42.3213H78.8124V42.6271H78.5244Z" fill="#263238"/>
<path d="M79.3369 42.6271V42.3213H79.6249V42.6271H79.3369Z" fill="#263238"/>
<path opacity="0.7" d="M107.419 28.1025H38.5874C37.7851 28.1025 37.0157 28.4407 36.4481 29.0427C35.8805 29.6447 35.5613 30.4613 35.5605 31.3131V34.7498H110.441V31.3131C110.439 30.4626 110.12 29.6474 109.554 29.0457C108.988 28.4441 108.22 28.105 107.419 28.1025V28.1025Z" fill="#407BFF"/>
<path d="M41.5589 31.4265C41.5589 31.1967 41.4947 30.9721 41.3745 30.781C41.2542 30.59 41.0833 30.441 40.8833 30.3531C40.6833 30.2652 40.4633 30.2421 40.251 30.287C40.0387 30.3318 39.8437 30.4425 39.6907 30.605C39.5376 30.7675 39.4334 30.9745 39.3911 31.1999C39.3489 31.4253 39.3706 31.6589 39.4534 31.8712C39.5363 32.0835 39.6765 32.265 39.8565 32.3926C40.0365 32.5203 40.2481 32.5885 40.4645 32.5885C40.7548 32.5885 41.0331 32.466 41.2384 32.2481C41.4436 32.0302 41.5589 31.7347 41.5589 31.4265Z" fill="white"/>
<path d="M45.8802 31.4265C45.8802 31.1967 45.816 30.9721 45.6958 30.781C45.5755 30.59 45.4046 30.441 45.2046 30.3531C45.0046 30.2652 44.7846 30.2421 44.5723 30.287C44.36 30.3318 44.165 30.4425 44.0119 30.605C43.8589 30.7675 43.7547 30.9745 43.7124 31.1999C43.6702 31.4253 43.6919 31.6589 43.7747 31.8712C43.8575 32.0835 43.9978 32.265 44.1778 32.3926C44.3578 32.5203 44.5694 32.5885 44.7858 32.5885C45.0761 32.5885 45.3544 32.466 45.5597 32.2481C45.7649 32.0302 45.8802 31.7347 45.8802 31.4265Z" fill="white"/>
<path d="M50.1986 31.4265C50.1986 31.1967 50.1344 30.9721 50.0141 30.781C49.8939 30.59 49.7229 30.441 49.523 30.3531C49.323 30.2652 49.1029 30.2421 48.8907 30.287C48.6784 30.3318 48.4834 30.4425 48.3303 30.605C48.1773 30.7675 48.073 30.9745 48.0308 31.1999C47.9886 31.4253 48.0102 31.6589 48.0931 31.8712C48.1759 32.0835 48.3162 32.265 48.4962 32.3926C48.6761 32.5203 48.8877 32.5885 49.1042 32.5885C49.3944 32.5885 49.6728 32.466 49.878 32.2481C50.0833 32.0302 50.1986 31.7347 50.1986 31.4265Z" fill="white"/>
<path opacity="0.1" d="M105.354 49.7628H40.6465C40.3927 49.7628 40.1492 49.656 39.9694 49.4657C39.7896 49.2754 39.6883 49.0172 39.6875 48.7477V48.7477C39.6883 48.4779 39.7895 48.2194 39.9692 48.0286C40.1489 47.8378 40.3924 47.7303 40.6465 47.7295H105.354C105.609 47.7303 105.852 47.8378 106.032 48.0286C106.211 48.2194 106.313 48.4779 106.313 48.7477V48.7477C106.313 49.0172 106.211 49.2754 106.032 49.4657C105.852 49.656 105.608 49.7628 105.354 49.7628V49.7628Z" fill="#407BFF"/>
<path d="M88.6993 49.7628H40.6465C40.3927 49.7628 40.1492 49.656 39.9694 49.4657C39.7896 49.2754 39.6883 49.0172 39.6875 48.7477V48.7477C39.6883 48.4779 39.7895 48.2194 39.9692 48.0286C40.1489 47.8378 40.3924 47.7303 40.6465 47.7295H88.6993C88.9532 47.7303 89.1964 47.8379 89.3756 48.0288C89.5548 48.2197 89.6555 48.4782 89.6555 48.7477V48.7477C89.6555 49.0169 89.5548 49.2751 89.3754 49.4655C89.1961 49.6559 88.9529 49.7628 88.6993 49.7628V49.7628Z" fill="#407BFF"/>
<path d="M93.4488 54.3151H90.9951L89.6645 52.8994L88.334 54.3151H85.8744C85.5961 54.3167 85.3296 54.4348 85.1328 54.6438C84.936 54.8527 84.8248 55.1356 84.8232 55.4311V58.6661C84.8248 58.9616 84.936 59.2446 85.1328 59.4535C85.3296 59.6625 85.5961 59.7806 85.8744 59.7822H93.4488C93.7272 59.7806 93.9937 59.6625 94.1905 59.4535C94.3873 59.2446 94.4985 58.9616 94.5 58.6661V55.4311C94.4985 55.1356 94.3873 54.8527 94.1905 54.6438C93.9937 54.4348 93.7272 54.3167 93.4488 54.3151Z" fill="#263238"/>
<path d="M87.0352 56.1289H88.3945V56.4622C88.2847 56.5715 88.188 56.6947 88.1065 56.8291C88.0098 56.9966 87.9333 57.1764 87.879 57.3642C87.8321 57.5409 87.8021 57.7223 87.7897 57.9054H87.326C87.3543 57.656 87.4124 57.4115 87.4988 57.1777C87.5964 56.9505 87.7213 56.7378 87.8704 56.5447H87.0438L87.0352 56.1289Z" fill="white"/>
<path d="M88.7775 56.1289H89.8805V56.5233H89.1288L89.0885 56.7894C89.1386 56.765 89.1906 56.7455 89.244 56.7313C89.2931 56.719 89.3434 56.7128 89.3938 56.7129C89.4683 56.7091 89.5428 56.7215 89.6126 56.7494C89.6824 56.7773 89.7462 56.82 89.7999 56.875C89.8513 56.9269 89.8919 56.9895 89.9192 57.059C89.9464 57.1285 89.9598 57.2033 89.9583 57.2786C89.9574 57.395 89.9298 57.5094 89.8776 57.6119C89.8266 57.715 89.7473 57.7992 89.6501 57.8534C89.5315 57.9129 89.4011 57.9412 89.27 57.936C89.173 57.9386 89.0761 57.9273 88.982 57.9023C88.9094 57.8839 88.841 57.8507 88.7804 57.8045C88.7282 57.7623 88.6825 57.7118 88.645 57.6547C88.6075 57.5898 88.5784 57.5199 88.5586 57.4468L89.0309 57.3917C89.0374 57.4608 89.0658 57.5255 89.1116 57.5752C89.1525 57.6147 89.206 57.6365 89.2613 57.6363C89.2917 57.6368 89.3218 57.6299 89.3492 57.6161C89.3767 57.6023 89.4008 57.582 89.4197 57.5568C89.4661 57.4898 89.4885 57.4074 89.4831 57.3244C89.4913 57.2412 89.4686 57.1578 89.4197 57.0921C89.398 57.0677 89.3715 57.0485 89.3422 57.0358C89.3129 57.0232 89.2814 57.0173 89.2498 57.0187C89.2047 57.019 89.1603 57.0305 89.1202 57.0523C89.0807 57.076 89.0456 57.1071 89.0165 57.144L88.622 57.0859L88.7775 56.1289Z" fill="white"/>
<path d="M90.166 56.5666C90.1661 56.4853 90.1828 56.4049 90.215 56.3311C90.2496 56.2589 90.3037 56.1993 90.3705 56.1599C90.4472 56.1185 90.5322 56.0975 90.6182 56.0988C90.6787 56.0957 90.7391 56.1055 90.796 56.1275C90.8528 56.1496 90.905 56.1835 90.9494 56.2272C91.0271 56.321 91.07 56.4416 91.07 56.5666C91.07 56.6915 91.0271 56.8122 90.9494 56.906C90.905 56.9497 90.8528 56.9836 90.796 57.0056C90.7391 57.0277 90.6787 57.0375 90.6182 57.0344C90.5322 57.0357 90.4472 57.0147 90.3705 56.9732C90.3037 56.9339 90.2496 56.8743 90.215 56.802C90.1828 56.7282 90.1661 56.6479 90.166 56.5666V56.5666ZM90.4857 56.5666C90.4803 56.6422 90.4963 56.7178 90.5318 56.7837C90.5403 56.796 90.551 56.8064 90.5634 56.8142C90.5758 56.8219 90.5895 56.827 90.6038 56.829C90.6181 56.831 90.6326 56.8299 90.6464 56.8258C90.6603 56.8217 90.6732 56.8146 90.6844 56.8051C90.6918 56.7987 90.6986 56.7916 90.7046 56.7837C90.7384 56.7172 90.7543 56.6421 90.7507 56.5666C90.7558 56.49 90.7398 56.4135 90.7046 56.3464C90.6944 56.3351 90.6821 56.326 90.6685 56.3198C90.6548 56.3136 90.6402 56.3104 90.6254 56.3104C90.6106 56.3104 90.5959 56.3136 90.5823 56.3198C90.5687 56.326 90.5564 56.3351 90.5462 56.3464C90.5462 56.3464 90.5462 56.3464 90.5318 56.3464C90.4953 56.4141 90.4793 56.492 90.4857 56.5696V56.5666ZM91.5859 56.0957H91.8278L90.8572 57.9976H90.6182L91.5859 56.0957ZM91.3727 57.5236C91.3783 57.4466 91.3989 57.3716 91.4332 57.3035C91.4678 57.2312 91.522 57.1716 91.5887 57.1322C91.6649 57.0895 91.7503 57.0684 91.8364 57.0711C91.8969 57.068 91.9573 57.0778 92.0142 57.0999C92.0711 57.1219 92.1232 57.1558 92.1676 57.1995C92.2454 57.2933 92.2883 57.414 92.2883 57.5389C92.2883 57.6639 92.2454 57.7845 92.1676 57.8783C92.1232 57.922 92.0711 57.9559 92.0142 57.978C91.9573 58 91.8969 58.0098 91.8364 58.0067C91.7502 58.0099 91.6648 57.9888 91.5887 57.9456C91.52 57.909 91.4651 57.8486 91.4332 57.7743C91.3961 57.6976 91.3754 57.613 91.3727 57.5267V57.5236ZM91.6924 57.5236C91.6873 57.5992 91.7034 57.6747 91.7385 57.7407C91.7468 57.7528 91.7572 57.7631 91.7693 57.7709C91.7813 57.7787 91.7946 57.7839 91.8086 57.7861C91.8225 57.7884 91.8367 57.7877 91.8504 57.7841C91.8641 57.7805 91.8769 57.7741 91.8883 57.7652C91.8973 57.7586 91.9052 57.7503 91.9113 57.7407C91.948 57.6754 91.9642 57.5993 91.9574 57.5236C91.964 57.4469 91.9479 57.37 91.9113 57.3035C91.901 57.2897 91.8879 57.2787 91.8729 57.2712C91.8579 57.2638 91.8414 57.2602 91.8249 57.2607C91.8079 57.2594 91.791 57.263 91.7758 57.2711C91.7606 57.2791 91.7477 57.2914 91.7385 57.3065C91.7021 57.3742 91.686 57.4521 91.6924 57.5297V57.5236Z" fill="white"/>
<path opacity="0.1" d="M72.9096 60.8869L73.1976 59.5996C73.2124 59.5515 73.2181 59.5007 73.2144 59.4501C73.2107 59.3996 73.1976 59.3503 73.1759 59.3052C73.1543 59.26 73.1244 59.2198 73.0881 59.1869C73.0518 59.154 73.0097 59.1291 72.9643 59.1135C72.9237 59.0982 72.8805 59.092 72.8376 59.0951H68.4571C67.74 54.9123 65.1912 51.8394 65.9256 46.7576C67.3656 44.3543 62.1816 35.4229 58.4174 40.7921C53.5416 41.1315 58.0516 50.8426 48.7752 53.3284C41.9524 55.163 38.2113 59.3581 36.7051 62.8866C37.2783 63.2258 37.9237 63.4037 38.58 63.4033H38.7528C39.3396 62.0135 40.1407 60.7372 41.123 59.6272C40.6125 60.8563 40.1729 62.1174 39.8068 63.4033H73.3329L73.4164 61.4098C73.422 61.3467 73.4157 61.2831 73.398 61.2226C73.3802 61.1621 73.3514 61.1059 73.3131 61.0573C73.2748 61.0087 73.2278 60.9686 73.1749 60.9394C73.1219 60.9101 73.0641 60.8923 73.0046 60.8869C72.973 60.8839 72.9412 60.8839 72.9096 60.8869Z" fill="#407BFF"/>
<path d="M62.7923 62.6941C62.2163 67.3417 61.5654 76.5085 49.5817 77.4166C41.6675 78.0129 38.1971 70.0263 33.2147 67.4212C33.6553 63.6053 35.3056 59.7771 35.3632 59.6242C33.6129 61.6415 32.4227 64.1338 31.9245 66.825C31.3476 66.5962 30.7544 66.4173 30.1504 66.2899C30.1504 62.6941 33.736 55.8083 43.0153 53.3255C52.2947 50.8427 47.7817 41.1316 52.6576 40.7892C56.4275 35.42 61.6057 44.3513 60.1657 46.7546C59.2384 53.1787 63.5555 56.3862 62.7923 62.6941Z" fill="#263238"/>
<path d="M67.3173 62.8705C67.2945 62.7077 67.2309 62.5543 67.1331 62.4266C67.0352 62.2988 66.9068 62.2014 66.7613 62.1444C66.6158 62.0875 66.4585 62.0732 66.306 62.1031C66.1535 62.1329 66.0114 62.2058 65.8946 62.314L64.4546 63.6105C64.3723 63.7258 64.3169 63.8602 64.2928 64.0026C64.2688 64.145 64.2769 64.2914 64.3163 64.4299L64.5726 65.3197C65.2478 65.3654 65.9246 65.2613 66.5598 65.0139C66.8517 64.91 67.099 64.6989 67.2574 64.4187C67.4158 64.1385 67.4748 63.8074 67.4238 63.4851L67.3173 62.8705Z" fill="#FFB573"/>
<path d="M59.175 57.5236C59.2326 57.8599 59.3104 58.2727 59.3853 58.6549C59.4602 59.0371 59.5437 59.4285 59.6301 59.8137C59.8029 60.5873 60.0016 61.3425 60.2061 62.107C60.4106 62.8714 60.6698 63.5869 60.9347 64.3023C61.2052 64.9898 61.5159 65.6587 61.865 66.3051L61.1219 65.6783C61.2756 65.7826 61.4606 65.8219 61.6403 65.7884C61.9761 65.7341 62.2994 65.6138 62.5936 65.4337C62.9708 65.2198 63.3302 64.9723 63.6678 64.6937C64.0221 64.4124 64.3878 64.0822 64.7104 63.7764L64.7795 63.7153C64.9295 63.5786 65.1191 63.5007 65.3166 63.4945C65.5141 63.4883 65.7077 63.5542 65.865 63.6812C66.0224 63.8081 66.1339 63.9885 66.1811 64.1923C66.2284 64.396 66.2084 64.6108 66.1245 64.8007C65.8842 65.3391 65.5948 65.8511 65.2605 66.3296C64.923 66.8234 64.5368 67.2775 64.1085 67.6841C63.6155 68.1544 63.0414 68.5188 62.4179 68.7573C62.0476 68.8975 61.6589 68.9749 61.2659 68.9866C60.8399 68.9982 60.4151 68.9321 60.0102 68.791C59.7355 68.6945 59.4973 68.5069 59.3306 68.2559L59.2672 68.1641C58.76 67.4003 58.3112 66.5946 57.9251 65.7547C57.5564 64.9408 57.2305 64.1058 56.9488 63.2536C56.6705 62.4158 56.4321 61.5637 56.2346 60.7004C56.1366 60.2724 56.0416 59.8412 55.9466 59.4071C55.8515 58.9729 55.7968 58.5509 55.7334 58.0617C55.6793 57.5906 55.7992 57.1156 56.068 56.7363C56.3368 56.3571 56.7335 56.1033 57.1749 56.0281C57.6163 55.9529 58.0679 56.0622 58.435 56.3331C58.8021 56.604 59.0559 57.0153 59.1434 57.4808L59.175 57.5236Z" fill="#FFB573"/>
<path d="M39.107 121.617C38.6606 119.477 38.7729 118.973 38.41 117.795C38.2197 117.129 37.9466 116.492 37.5979 115.903C37.2811 115.291 37.8859 114.781 38.4849 114.698C38.9543 114.637 39.4497 114.615 40.0257 114.518L41.2699 116.982C40.6132 117.866 40.0891 120.04 40.3223 121.685C40.4836 122.871 39.2856 122.477 39.107 121.617Z" fill="#407BFF"/>
<path d="M59.1749 70.626C59.1749 70.626 59.5032 88.7486 59.8517 98.7899C60.7676 104.731 41.5234 117.102 41.5234 117.102C41.1116 117.31 40.02 115.044 40.0373 114.518C40.0373 114.518 48.3144 101.575 53.245 98.4505C47.773 82.4132 49.2706 70.626 49.2706 70.626H59.1749Z" fill="#263238"/>
<path opacity="0.2" d="M49.2588 70.626H55.5056C55.5056 70.626 54.2556 88.3419 52.8646 97.3375C47.8448 81.872 49.2588 70.626 49.2588 70.626Z" fill="black"/>
<path opacity="0.2" d="M45.3977 106.838C47.768 103.697 50.5097 100.417 52.7129 98.8145C52.399 101.921 52.0764 105.67 51.8288 109.516C49.758 111.256 47.6096 112.88 45.8124 114.167C45.5146 111.737 45.376 109.288 45.3977 106.838Z" fill="black"/>
<path d="M42.7195 116.655C42.469 116.844 42.0226 117.19 41.7 117.456C41.675 117.477 41.6462 117.493 41.6153 117.502C41.5844 117.512 41.5521 117.515 41.5202 117.511C41.4883 117.507 41.4574 117.496 41.4295 117.479C41.4015 117.462 41.377 117.44 41.3573 117.413C40.7386 116.509 40.1996 115.547 39.7474 114.539C39.7235 114.489 39.7153 114.432 39.7242 114.377C39.733 114.322 39.7583 114.272 39.7963 114.233L40.6027 113.383C40.6496 113.334 40.7127 113.307 40.7784 113.307C40.8441 113.307 40.9072 113.334 40.9541 113.383L40.98 113.417L42.78 116.285C42.7992 116.313 42.8129 116.345 42.8203 116.379C42.8277 116.413 42.8286 116.449 42.8229 116.483C42.8173 116.518 42.8053 116.551 42.7875 116.58C42.7697 116.609 42.7466 116.635 42.7195 116.655V116.655Z" fill="#407BFF"/>
<path opacity="0.3" d="M42.7195 116.655C42.469 116.844 42.0226 117.19 41.7 117.456C41.675 117.477 41.6462 117.493 41.6153 117.502C41.5844 117.512 41.5521 117.515 41.5202 117.511C41.4883 117.507 41.4574 117.496 41.4295 117.479C41.4015 117.462 41.377 117.44 41.3573 117.413C40.7386 116.509 40.1996 115.547 39.7474 114.539C39.7235 114.489 39.7153 114.432 39.7242 114.377C39.733 114.322 39.7583 114.272 39.7963 114.233L40.6027 113.383C40.6496 113.334 40.7127 113.307 40.7784 113.307C40.8441 113.307 40.9072 113.334 40.9541 113.383L40.98 113.417L42.78 116.285C42.7992 116.313 42.8129 116.345 42.8203 116.379C42.8277 116.413 42.8286 116.449 42.8229 116.483C42.8173 116.518 42.8053 116.551 42.7875 116.58C42.7697 116.609 42.7466 116.635 42.7195 116.655V116.655Z" fill="white"/>
<path d="M51.9947 131.983C49.8923 131.983 50.0392 131.95 48.8527 131.907C47.8389 131.867 47.6056 132.002 46.7906 131.983C46.1109 131.968 46.0763 131.277 46.2146 130.482C46.2866 130.081 46.4075 129.595 46.5026 128.953H49.6994C49.9902 129.428 50.3772 129.828 50.8321 130.123C51.287 130.419 51.7983 130.603 52.3288 130.662C53.4722 130.818 52.8386 131.983 51.9947 131.983Z" fill="#407BFF"/>
<path d="M56.1915 70.626C56.1915 70.626 52.8852 89.9503 51.6727 98.7104C50.4027 107.908 48.8331 122.838 49.6971 128.95C49.2305 129.256 47.4967 129.271 46.5003 128.95C46.5003 128.95 41.4459 107.972 45.6679 99.117C43.266 77.5882 46.8199 76.4691 47.7991 70.626H56.1915Z" fill="#263238"/>
<path d="M49.8294 127.675C49.8734 128.099 49.9465 128.519 50.0483 128.932C50.0585 128.962 50.0627 128.995 50.0606 129.027C50.0585 129.059 50.0501 129.091 50.0361 129.119C50.022 129.148 50.0026 129.173 49.9789 129.194C49.9552 129.214 49.9279 129.229 49.8985 129.238C49.888 129.239 49.8773 129.239 49.8668 129.238C48.7148 129.436 46.9868 129.149 46.4483 129.045C46.3974 129.033 46.3505 129.007 46.3124 128.97C46.2744 128.932 46.2467 128.884 46.2323 128.831L45.9587 127.654C45.9484 127.624 45.9439 127.592 45.9457 127.56C45.9474 127.528 45.9552 127.497 45.9687 127.468C45.9822 127.439 46.001 127.414 46.0241 127.393C46.0471 127.373 46.0738 127.357 46.1027 127.348C46.1285 127.345 46.1546 127.345 46.1804 127.348L49.5673 127.415C49.6322 127.421 49.6935 127.449 49.7411 127.497C49.7887 127.544 49.8198 127.607 49.8294 127.675V127.675Z" fill="#407BFF"/>
<path opacity="0.3" d="M49.8294 127.675C49.8734 128.099 49.9465 128.519 50.0483 128.932C50.0585 128.962 50.0627 128.995 50.0606 129.027C50.0585 129.059 50.0501 129.091 50.0361 129.119C50.022 129.148 50.0026 129.173 49.9789 129.194C49.9552 129.214 49.9279 129.229 49.8985 129.238C49.888 129.239 49.8773 129.239 49.8668 129.238C48.7148 129.436 46.9868 129.149 46.4483 129.045C46.3974 129.033 46.3505 129.007 46.3124 128.97C46.2744 128.932 46.2467 128.884 46.2323 128.831L45.9587 127.654C45.9484 127.624 45.9439 127.592 45.9457 127.56C45.9474 127.528 45.9552 127.497 45.9687 127.468C45.9822 127.439 46.001 127.414 46.0241 127.393C46.0471 127.373 46.0738 127.357 46.1027 127.348C46.1285 127.345 46.1546 127.345 46.1804 127.348L49.5673 127.415C49.6322 127.421 49.6935 127.449 49.7411 127.497C49.7887 127.544 49.8198 127.607 49.8294 127.675V127.675Z" fill="white"/>
<path d="M56.4824 53.6982C58.5791 54.1171 59.0226 55.0283 60.5663 58.407C60.0997 60.633 57.5941 62.5868 57.5941 62.5868C57.5941 62.5868 53.0235 56.5724 56.4824 53.6982Z" fill="white"/>
<path d="M47.8009 70.6253C45.8338 73.475 43.6911 78.0279 43.6738 87.8123C53.8978 92.7045 58.7621 92.7045 61.1929 91.4815C59.4389 83.9352 59.1769 70.6253 59.1769 70.6253C57.5439 68.7174 47.8009 70.6253 47.8009 70.6253Z" fill="#407BFF"/>
<path opacity="0.2" d="M54.6941 79.2168C53.7984 82.7331 54.7171 86.2494 55.5063 87.0291C54.9648 84.9988 54.6941 79.2168 54.6941 79.2168Z" fill="black"/>
<path d="M59.8061 57.9157C59.8406 59.1021 59.7312 60.5361 59.4806 63.3614C59.3107 65.7525 59.8723 70.2992 59.1638 70.6324C57.3725 71.1645 52.6694 70.9199 47.7993 70.6324C47.5718 67.2079 47.6553 64.8474 45.6163 57.2033C45.3982 56.4949 45.4542 55.7236 45.7717 55.0591C46.0893 54.3945 46.6426 53.891 47.3097 53.6595C47.4967 53.5948 47.6899 53.5528 47.8857 53.5341C48.3379 53.4852 48.816 53.4424 49.3056 53.4179C51.0227 53.2865 52.7465 53.2865 54.4637 53.4179C55.0253 53.473 55.6157 53.5464 56.1629 53.6289C57.1442 53.7839 58.0443 54.2963 58.7089 55.0784C59.3735 55.8604 59.7614 56.8635 59.8061 57.9157V57.9157Z" fill="white"/>
<path d="M51.1315 48.1152C51.4195 49.9162 50.662 52.2522 49.582 53.4264C49.582 53.4264 51.1545 53.1756 54.4924 55.368C55.4601 53.8972 54.743 53.4264 54.743 53.4264C53.8473 53.2429 53.8473 52.5488 54.1987 51.2096L51.1315 48.1152Z" fill="#FFB573"/>
<path d="M53.7921 54.924C52.692 55.0891 52.3521 56.8533 52.3521 56.8533C52.3521 56.8533 49.7112 54.8689 48.876 53.4716C49.2081 53.2726 49.5301 53.0552 49.8408 52.8203C49.8408 52.8203 53.1499 54.2452 53.7921 54.924Z" fill="#407BFF"/>
<path d="M54.8384 54.7353C54.8384 54.7353 55.7024 54.9371 56.1488 56.2274C56.3994 53.6559 55.2531 53.4205 55.2531 53.4205C55.1087 53.3115 54.9445 53.2356 54.7709 53.1977C54.5974 53.1598 54.4183 53.1607 54.2451 53.2003C55.1178 53.6895 54.8384 54.7353 54.8384 54.7353Z" fill="#407BFF"/>
<path opacity="0.2" d="M54.1984 51.2059L52.3984 49.3896C52.4301 49.6954 52.4791 50.0776 52.5453 50.4476C52.7506 51.3943 53.2725 52.2298 54.0141 52.7989C53.9277 52.432 54.0141 51.9091 54.1984 51.2059Z" fill="black"/>
<path d="M51.8284 43.9815C51.1229 46.7793 50.7686 47.9564 51.5923 49.8766C52.8307 52.7845 56.1254 53.24 57.5769 50.7786C58.8873 48.5496 59.8204 44.3576 57.7123 42.2356C57.2743 41.7648 56.7257 41.4269 56.1232 41.2571C55.5208 41.0872 54.8866 41.0916 54.2863 41.2697C53.686 41.4478 53.1415 41.7932 52.7093 42.2701C52.2772 42.7469 51.973 43.3378 51.8284 43.9815V43.9815Z" fill="#FFB573"/>
<path d="M52.8906 41.2571C53.2996 44.6022 57.4468 42.6514 59.9668 46.5254C59.7277 43.2232 56.6749 38.5358 52.8906 41.2571Z" fill="#263238"/>
<path d="M53.1496 41.1318C56.692 43.6452 52.8156 45.6816 50.1976 45.5318C49.3336 42.7554 53.1496 41.1318 53.1496 41.1318Z" fill="#263238"/>
<path opacity="0.2" d="M54.9384 46.0847C54.8284 45.9334 54.6915 45.8067 54.5353 45.7117C54.3791 45.6167 54.2068 45.5554 54.0283 45.5312C54.2959 45.7753 54.6048 45.9631 54.9384 46.0847V46.0847Z" fill="black"/>
<path opacity="0.2" d="M54.7996 46.2952C54.6742 46.1831 54.5274 46.1012 54.3693 46.0553C54.2111 46.0094 54.0455 46.0004 53.8838 46.0292C54.168 46.1855 54.4801 46.2762 54.7996 46.2952Z" fill="black"/>
<path d="M55.4626 46.3573C55.3934 46.5897 55.4482 46.8252 55.5835 46.8802C55.7189 46.9352 55.8859 46.7946 55.955 46.5744C56.0242 46.3543 55.9694 46.1097 55.8341 46.0516C55.6987 45.9935 55.5317 46.128 55.4626 46.3573Z" fill="#263238"/>
<path d="M58.0026 47.461C57.9335 47.6934 57.9882 47.9258 58.1236 47.9839C58.2589 48.042 58.4116 47.8983 58.4922 47.6781C58.5728 47.458 58.5066 47.2103 58.3712 47.1552C58.2359 47.1002 58.0688 47.2286 58.0026 47.461Z" fill="#263238"/>
<path d="M58.3115 47.1309L58.8558 47.1767C58.8558 47.1767 58.4699 47.5192 58.3115 47.1309Z" fill="#263238"/>
<path d="M57.1789 47.5459C57.2026 48.1527 57.2994 48.7539 57.4669 49.3346C57.3335 49.3743 57.1934 49.3812 57.0571 49.3547C56.9209 49.3282 56.7921 49.2691 56.6807 49.1817L57.1789 47.5459Z" fill="#ED893E"/>
<path d="M55.2474 49.5426C55.3543 49.6126 55.4671 49.672 55.5843 49.72C55.5913 49.7235 55.5989 49.7256 55.6066 49.726C55.6143 49.7264 55.6221 49.7251 55.6293 49.7222C55.6366 49.7194 55.6432 49.715 55.6489 49.7094C55.6545 49.7037 55.659 49.6969 55.6621 49.6894C55.6621 49.6894 55.6621 49.6894 55.6621 49.6894C55.6677 49.6715 55.6667 49.6521 55.6592 49.635C55.6517 49.6179 55.6383 49.6045 55.6218 49.5977C55.356 49.4877 55.1168 49.3157 54.9219 49.0945C54.727 48.8733 54.5814 48.6085 54.4957 48.3196C54.4916 48.3017 54.4813 48.2862 54.4669 48.276C54.4525 48.2658 54.435 48.2617 54.4179 48.2645C54.4014 48.2708 54.3876 48.2833 54.3791 48.2996C54.3706 48.316 54.368 48.335 54.3719 48.3532C54.5179 48.8494 54.8292 49.2722 55.2474 49.5426V49.5426Z" fill="#263238"/>
<path d="M50.5346 45.8428C50.5291 46.1193 50.5774 46.3939 50.6766 46.6496C50.7757 46.9053 50.9234 47.1366 51.1106 47.3288C51.5973 47.7783 52.156 47.2218 52.2828 46.4452C52.4008 45.745 52.2828 44.6656 51.6693 44.528C51.0559 44.3904 50.5346 45.0968 50.5346 45.8428Z" fill="#FFB573"/>
<path d="M55.3842 44.8438C55.4013 44.8486 55.4191 44.8494 55.4365 44.8462C55.4539 44.843 55.4704 44.836 55.485 44.8255C55.6193 44.7289 55.7738 44.6689 55.935 44.6508C56.0963 44.6327 56.2592 44.657 56.4095 44.7215C56.4241 44.7294 56.4399 44.7342 56.4562 44.7355C56.4725 44.7369 56.4889 44.7348 56.5044 44.7294C56.52 44.724 56.5343 44.7154 56.5467 44.704C56.5591 44.6927 56.5692 44.6789 56.5766 44.6634V44.6634C56.5889 44.6275 56.5883 44.5881 56.5751 44.5526C56.5618 44.5171 56.5367 44.488 56.5046 44.4708C56.3158 44.3852 56.1099 44.3513 55.9056 44.3722C55.7013 44.393 55.5052 44.4679 55.3353 44.59C55.3071 44.6126 55.2881 44.6458 55.2822 44.6827C55.2763 44.7197 55.284 44.7576 55.3036 44.7888C55.3232 44.817 55.3519 44.8365 55.3842 44.8438V44.8438Z" fill="#263238"/>
<path d="M55.7676 46.0273L56.3148 46.0763C56.3148 46.0763 55.9289 46.4034 55.7676 46.0273Z" fill="#263238"/>
<path d="M47.3119 58.1084L46.4479 60.0041C46.1599 60.6431 45.8719 61.2853 45.6099 61.9243C45.3478 62.5633 45.0886 63.2085 44.8668 63.8414C44.6505 64.4404 44.4696 65.0531 44.3254 65.676L44.2707 64.9208C44.2954 65.0512 44.3465 65.1743 44.4204 65.2816C44.5396 65.4852 44.6775 65.6757 44.8323 65.8503C45.1916 66.2757 45.5764 66.676 45.9843 67.0489C46.4047 67.4464 46.8483 67.8347 47.3091 68.22C47.7699 68.6052 48.2422 68.9874 48.6943 69.3605L48.7231 69.3819C48.8887 69.5133 49.0045 69.7033 49.0493 69.9176C49.0942 70.1319 49.0652 70.3561 48.9676 70.5496C48.87 70.7431 48.7103 70.893 48.5175 70.9722C48.3247 71.0513 48.1116 71.0545 47.9167 70.981C47.3183 70.7639 46.731 70.5138 46.1571 70.2319C45.5787 69.95 45.0145 69.6367 44.4665 69.2932C43.8879 68.9338 43.3379 68.5247 42.822 68.0701C42.5348 67.8115 42.2671 67.5293 42.0214 67.2262C41.7064 66.8417 41.4604 66.3992 41.2956 65.9206C41.2268 65.7192 41.2031 65.5036 41.2265 65.2908V65.1623C41.3281 64.3419 41.4938 63.5319 41.7219 62.7407C41.9263 61.9763 42.1711 61.2516 42.4332 60.5331C42.6953 59.8145 42.9804 59.1174 43.2771 58.4264C43.5737 57.7353 43.8876 57.0688 44.2534 56.3747C44.4718 55.9564 44.8354 55.6453 45.2668 55.5075C45.6982 55.3697 46.1631 55.4162 46.5627 55.6371C46.9622 55.8579 47.2647 56.2357 47.4058 56.6899C47.5468 57.1441 47.5152 57.6388 47.3177 58.0686L47.3119 58.1084Z" fill="#FFB573"/>
<path d="M47.7763 53.5518C45.9043 53.5518 45.0835 54.0165 43.0156 57.6643C43.4764 59.2328 46.4428 61.153 46.4428 61.153C46.4428 61.153 49.6425 56.7745 47.7763 53.5518Z" fill="white"/>
<path d="M50.9001 71.8157L50.8051 70.9229C50.7866 70.757 50.7312 70.5982 50.6436 70.4594C50.556 70.3207 50.4386 70.206 50.3011 70.1249L48.9964 69.3574C48.7398 69.2066 48.4528 69.1235 48.1596 69.115C47.8664 69.1065 47.5756 69.1728 47.3116 69.3085L46.9775 69.4767C47.0438 70.9718 48.1497 72.5343 48.1497 72.5343L48.4204 73.0174C48.5271 73.2195 48.7048 73.3687 48.9147 73.4323C49.1246 73.4959 49.3496 73.4687 49.5407 73.3568V73.3568L50.4479 72.8034C50.6056 72.7032 50.7323 72.5565 50.8126 72.3811C50.8929 72.2057 50.9233 72.0092 50.9001 71.8157V71.8157Z" fill="#FFB573"/>
<path d="M65.4589 66.2897H55.5863C55.5386 66.2917 55.491 66.2838 55.4463 66.2663C55.4015 66.2488 55.3604 66.2221 55.3254 66.1877C55.2903 66.1534 55.262 66.112 55.242 66.066C55.2221 66.02 55.2108 65.9703 55.209 65.9197C55.2089 65.8752 55.2147 65.8309 55.2263 65.7882L56.6202 59.5996C56.6551 59.4624 56.7292 59.3402 56.8324 59.2498C56.9356 59.1594 57.0628 59.1053 57.1962 59.095H67.0688C67.1165 59.093 67.1641 59.1009 67.2088 59.1184C67.2536 59.1359 67.2947 59.1626 67.3297 59.197C67.3648 59.2313 67.3931 59.2727 67.413 59.3187C67.433 59.3647 67.4442 59.4144 67.4461 59.465C67.4491 59.5106 67.4432 59.5564 67.4288 59.5996L66.032 65.7882C65.9983 65.9252 65.9248 66.0474 65.8219 66.1374C65.719 66.2275 65.592 66.2807 65.4589 66.2897V66.2897Z" fill="#407BFF"/>
<path d="M55.6239 65.7914C55.6146 65.7892 55.6058 65.7851 55.5981 65.7794C55.5903 65.7736 55.5836 65.7662 55.5786 65.7577C55.5735 65.7491 55.57 65.7396 55.5684 65.7297C55.5668 65.7197 55.5671 65.7095 55.5692 65.6997L56.871 59.9269C56.9091 59.7707 56.9936 59.6318 57.1118 59.5305C57.23 59.4292 57.3758 59.3709 57.5276 59.3643H66.925C66.9441 59.3643 66.9624 59.3723 66.9759 59.3866C66.9895 59.401 66.997 59.4204 66.997 59.4407C66.997 59.461 66.9895 59.4804 66.9759 59.4948C66.9624 59.5091 66.9441 59.5171 66.925 59.5171H57.5132C57.3942 59.525 57.2804 59.5719 57.1876 59.6513C57.0947 59.7307 57.0274 59.8387 56.9948 59.9605L55.6959 65.7333C55.6915 65.75 55.6821 65.7647 55.6691 65.7752C55.6561 65.7857 55.6402 65.7914 55.6239 65.7914V65.7914Z" fill="white"/>
<path d="M66.9889 60.9299L66.8593 60.9941C66.6598 61.0898 66.4877 61.2397 66.3602 61.4287C66.2328 61.6177 66.1546 61.839 66.1335 62.0703L66.0557 63.376C66.0463 63.496 66.0592 63.6169 66.0937 63.7317C66.1282 63.8464 66.1837 63.9528 66.257 64.0448C66.3303 64.1368 66.4199 64.2126 66.5208 64.2678C66.6217 64.323 66.7318 64.3566 66.8449 64.3666H67.0177C67.1586 64.3579 67.2916 64.2945 67.3914 64.1886C67.4912 64.0826 67.5509 63.9414 67.5591 63.7918L67.657 61.4038C67.6666 61.2746 67.6278 61.1466 67.5491 61.0476C67.4704 60.9486 67.3581 60.8865 67.2365 60.8748C67.1509 60.8698 67.0655 60.8888 66.9889 60.9299V60.9299Z" fill="#FFB573"/>
<path d="M97.212 117.122C96.2673 112.639 98.1537 101.885 98.94 99.4516C99.7262 97.0177 105.184 94.1068 108.496 92.5321C111.808 90.9574 117.873 95.2442 117.873 95.2442C117.873 95.2442 111.577 94.544 109.769 95.5011C107.96 96.4581 104.104 99.3904 102.857 101.904C101.61 104.417 97.4136 111.863 97.212 117.122Z" fill="#263238"/>
<path d="M85.7119 99.8369C90.0463 100.32 93.6002 103.466 94.7292 104.423C95.8581 105.38 96.3074 109.23 96.4745 111.526C96.6415 113.823 93.1596 116.605 93.1596 116.605C93.1596 116.605 94.8012 112.985 94.6572 111.713C94.5132 110.441 93.7327 107.548 92.6412 106.285C91.5497 105.023 89.1852 101.705 85.7119 99.8369Z" fill="#263238"/>
<path d="M96.0111 114.214C96.4172 107.934 93.589 103.797 93.9951 98.825C94.4012 93.8533 99.6773 82.7602 100.135 79.623C100.999 82.3994 97.1948 95.7521 97.3618 99.3723C97.5289 102.993 99.3231 110.297 96.0111 114.214Z" fill="#407BFF"/>
<path opacity="0.6" d="M96.0111 114.214C96.4172 107.934 93.589 103.797 93.9951 98.825C94.4012 93.8533 99.6773 82.7602 100.135 79.623C100.999 82.3994 97.1948 95.7521 97.3618 99.3723C97.5289 102.993 99.3231 110.297 96.0111 114.214Z" fill="white"/>
<path d="M91.691 89.8626C92.3994 89.9866 93.0607 90.3196 93.5995 90.8235C94.1383 91.3274 94.5328 91.9818 94.7381 92.7123C94.2699 93.3079 93.6598 93.7594 92.9715 94.0197C92.2831 94.28 91.5416 94.3395 90.8242 94.1922C88.9003 93.813 88.2322 92.6634 88.4654 91.4801C88.6987 90.2968 89.7672 89.4834 91.691 89.8626Z" fill="#407BFF"/>
<path d="M97.6957 92.9813C97.4894 93.4355 97.1675 93.8194 96.7665 94.0896C96.3654 94.3598 95.9012 94.5054 95.4262 94.5101C95.1548 94.0841 94.9954 93.5888 94.9645 93.0755C94.9336 92.5621 95.0324 92.0494 95.2506 91.5901C95.8266 90.367 96.6387 90.1071 97.3126 90.4863C97.9866 90.8654 98.2746 91.746 97.6957 92.9813Z" fill="#407BFF"/>
<path d="M96.3934 103.589C96.7364 103.94 96.9796 104.387 97.0952 104.878C97.2108 105.369 97.1942 105.884 97.0471 106.365C96.5795 106.502 96.0859 106.504 95.6174 106.37C95.149 106.236 94.7228 105.972 94.3831 105.604C93.4673 104.629 93.5018 103.736 94.0577 103.179C94.6135 102.623 95.4775 102.611 96.3934 103.589Z" fill="#407BFF"/>
<path d="M98.7066 109.326C98.4783 109.523 98.2023 109.649 97.9101 109.688C97.6179 109.728 97.3211 109.679 97.0535 109.549C97.0082 109.234 97.043 108.913 97.1545 108.618C97.2659 108.322 97.4498 108.064 97.6871 107.87C98.3178 107.344 98.8391 107.43 99.1127 107.833C99.3863 108.237 99.3373 108.8 98.7066 109.326Z" fill="#407BFF"/>
<path d="M100.504 100.604C100.07 101.143 99.5021 101.54 98.8654 101.752C98.2287 101.963 97.5488 101.98 96.9036 101.8C96.6843 101.12 96.6406 100.39 96.7768 99.6866C96.913 98.9827 97.2243 98.3305 97.6783 97.7975C98.8821 96.3635 100.057 96.3421 100.846 97.1157C101.635 97.8893 101.707 99.1765 100.504 100.604Z" fill="#407BFF"/>
<path d="M96.2551 114.423H96.2263C96.1889 114.415 96.1558 114.392 96.1342 114.359C96.1127 114.326 96.1043 114.285 96.1111 114.245C98.1559 102.908 96.258 93.062 90.4692 84.9837C90.4426 84.9546 90.4277 84.9157 90.4277 84.8752C90.4277 84.8347 90.4426 84.7957 90.4692 84.7666C90.4823 84.7524 90.498 84.7411 90.5153 84.7334C90.5326 84.7257 90.5512 84.7217 90.57 84.7217C90.5887 84.7217 90.6073 84.7257 90.6246 84.7334C90.6419 84.7411 90.6576 84.7524 90.6708 84.7666V84.7819C96.5114 92.9336 98.4295 102.859 96.3703 114.288C96.3672 114.321 96.3543 114.351 96.3336 114.376C96.3128 114.4 96.2853 114.416 96.2551 114.423V114.423Z" fill="#263238"/>
<path d="M91.1437 81.458C91.6648 82.1521 91.9917 82.9877 92.0869 83.8695C92.1821 84.7513 92.0419 85.6438 91.6822 86.445C90.8397 86.5707 89.9809 86.4546 89.1949 86.1089C88.4089 85.7632 87.7244 85.2004 87.2124 84.479C85.83 82.5588 86.0864 81.0147 87.1692 80.1799C88.2521 79.3452 89.7555 79.5317 91.1437 81.458Z" fill="#407BFF"/>
<path d="M90.0041 114.436L89.6875 119.243L89.9748 119.264L90.2914 114.457L90.0041 114.436Z" fill="#407BFF"/>
<path d="M89.5501 120.926L89.415 122.975L89.703 122.996L89.8381 120.947L89.5501 120.926Z" fill="#407BFF"/>
<path d="M103.625 111.064H91.0312L89.7295 130.465H104.93L103.625 111.064Z" fill="#407BFF"/>
<path d="M106.776 128.154C105.377 128.154 104.01 127.713 102.847 126.888C101.684 126.063 100.777 124.89 100.242 123.518C99.7062 122.146 99.5661 120.636 99.839 119.179C100.112 117.723 100.786 116.384 101.775 115.334C102.764 114.284 104.024 113.569 105.396 113.279C106.769 112.989 108.191 113.138 109.483 113.706C110.776 114.275 111.88 115.237 112.658 116.472C113.435 117.707 113.85 119.159 113.85 120.644V120.644C113.847 122.635 113.101 124.544 111.775 125.952C110.449 127.359 108.652 128.151 106.776 128.154V128.154ZM106.776 113.746C105.491 113.746 104.235 114.151 103.167 114.909C102.098 115.667 101.265 116.744 100.774 118.005C100.282 119.265 100.153 120.652 100.404 121.99C100.655 123.328 101.273 124.557 102.182 125.522C103.091 126.487 104.249 127.144 105.509 127.41C106.769 127.676 108.076 127.539 109.263 127.017C110.45 126.495 111.465 125.611 112.179 124.477C112.893 123.342 113.274 122.009 113.274 120.644V120.644C113.271 118.816 112.585 117.063 111.367 115.77C110.149 114.477 108.499 113.75 106.776 113.746V113.746Z" fill="#407BFF"/>
</svg>
