<svg width="145" height="153" viewBox="0 0 145 153" fill="none" xmlns="http://www.w3.org/2000/svg">
<path d="M145 117.543H0V117.615H145V117.543Z" fill="#EBEBEB"/>
<path d="M130.471 122.238H120.866V122.311H130.471V122.238Z" fill="#EBEBEB"/>
<path d="M96.0533 123.032H93.5332V123.105H96.0533V123.032Z" fill="#EBEBEB"/>
<path d="M120.576 119.53H115.011V119.603H120.576V119.53Z" fill="#EBEBEB"/>
<path d="M27.739 120.021H15.2139V120.093H27.739V120.021Z" fill="#EBEBEB"/>
<path d="M32.158 120.021H30.3223V120.093H32.158V120.021Z" fill="#EBEBEB"/>
<path d="M65.2932 121.252H38.126V121.324H65.2932V121.252Z" fill="#EBEBEB"/>
<path d="M68.7292 104.528H12.7331C12.2944 104.527 11.874 104.351 11.5641 104.039C11.2541 103.726 11.0801 103.303 11.0801 102.861V23.6517C11.0839 23.2128 11.2596 22.7932 11.5691 22.4839C11.8786 22.1746 12.2969 22.0008 12.7331 22H68.7292C69.1684 22 69.5895 22.1756 69.9001 22.4881C70.2106 22.8005 70.3851 23.2244 70.3851 23.6663V102.861C70.3851 103.303 70.2106 103.727 69.9001 104.04C69.5895 104.352 69.1684 104.528 68.7292 104.528V104.528ZM12.7331 22.0584C12.3136 22.0591 11.9116 22.2273 11.6153 22.5261C11.319 22.8248 11.1526 23.2296 11.1526 23.6517V102.861C11.1526 103.284 11.319 103.688 11.6153 103.987C11.9116 104.286 12.3136 104.454 12.7331 104.455H68.7292C69.1489 104.454 69.5512 104.286 69.848 103.987C70.1447 103.689 70.3118 103.284 70.3126 102.861V23.6517C70.3118 23.2294 70.1447 22.8245 69.848 22.5259C69.5512 22.2273 69.1489 22.0591 68.7292 22.0584H12.7331Z" fill="#EBEBEB"/>
<path d="M131.46 104.528H75.4606C75.0216 104.527 74.6009 104.351 74.2905 104.039C73.9802 103.727 73.8055 103.303 73.8047 102.861V23.6517C73.8093 23.2126 73.9857 22.7929 74.2956 22.4837C74.6056 22.1745 75.0241 22.0007 75.4606 22H131.46C131.895 22.0015 132.313 22.1758 132.622 22.4849C132.931 22.7941 133.106 23.2133 133.11 23.6517V102.861C133.11 103.302 132.936 103.725 132.627 104.038C132.317 104.35 131.898 104.526 131.46 104.528V104.528ZM75.4606 22.0584C75.0409 22.0591 74.6386 22.2273 74.3418 22.5259C74.045 22.8245 73.878 23.2294 73.8772 23.6517V102.861C73.878 103.284 74.045 103.689 74.3418 103.987C74.6386 104.286 75.0409 104.454 75.4606 104.455H131.46C131.879 104.454 132.282 104.286 132.578 103.987C132.875 103.689 133.042 103.284 133.043 102.861V23.6517C133.042 23.2294 132.875 22.8245 132.578 22.5259C132.282 22.2273 131.879 22.0591 131.46 22.0584H75.4606Z" fill="#EBEBEB"/>
<path d="M81.5078 102.24H101.254L101.254 34.5167H81.5078V102.24Z" fill="#FAFAFA"/>
<path d="M81.0494 36.9209H101.709V33.597H81.0494V36.9209Z" fill="#F0F0F0"/>
<path d="M81.0494 38.9492H101.709V37.2887H81.0494V38.9492Z" fill="#F0F0F0"/>
<path d="M81.0494 41.415H101.709V39.7546H81.0494V41.415Z" fill="#F0F0F0"/>
<path d="M81.0494 43.8838H101.709V42.2233H81.0494V43.8838Z" fill="#F0F0F0"/>
<path d="M81.0494 46.3506H101.709V44.6901H81.0494V46.3506Z" fill="#F0F0F0"/>
<path d="M81.0494 48.8164H101.709V47.1559H81.0494V48.8164Z" fill="#F0F0F0"/>
<path d="M81.0494 51.2812H101.709V49.6208H81.0494V51.2812Z" fill="#F0F0F0"/>
<path d="M81.0494 53.7471H101.709V52.0866H81.0494V53.7471Z" fill="#F0F0F0"/>
<path d="M81.0494 56.2129H101.709V54.5524H81.0494V56.2129Z" fill="#F0F0F0"/>
<path d="M81.0494 58.6797H101.709V57.0192H81.0494V58.6797Z" fill="#F0F0F0"/>
<path d="M81.0494 61.1455H101.709V59.485H81.0494V61.1455Z" fill="#F0F0F0"/>
<path d="M81.0494 63.6113H101.709V61.9509H81.0494V63.6113Z" fill="#F0F0F0"/>
<path d="M81.0494 66.0771H101.709V64.4167H81.0494V66.0771Z" fill="#F0F0F0"/>
<path d="M81.0494 68.543H101.709V66.8825H81.0494V68.543Z" fill="#F0F0F0"/>
<path d="M81.0494 71.0098H101.709V69.3493H81.0494V71.0098Z" fill="#F0F0F0"/>
<path d="M81.0494 73.4775H101.709V71.8171H81.0494V73.4775Z" fill="#F0F0F0"/>
<path d="M81.0494 75.9443H101.709V74.2839H81.0494V75.9443Z" fill="#F0F0F0"/>
<path d="M81.0494 78.4102H101.709V76.7497H81.0494V78.4102Z" fill="#F0F0F0"/>
<path d="M81.0494 80.875H101.709V79.2145H81.0494V80.875Z" fill="#F0F0F0"/>
<path d="M81.0494 83.3408H101.709V81.6803H81.0494V83.3408Z" fill="#F0F0F0"/>
<path d="M81.0494 85.8066H101.709V84.1462H81.0494V85.8066Z" fill="#F0F0F0"/>
<path d="M81.0494 88.2734H101.709V86.613H81.0494V88.2734Z" fill="#F0F0F0"/>
<path d="M81.0494 90.7393H101.709V89.0788H81.0494V90.7393Z" fill="#F0F0F0"/>
<path d="M81.0494 93.2051H101.709V91.5446H81.0494V93.2051Z" fill="#F0F0F0"/>
<path d="M81.0494 95.6709H101.709V94.0104H81.0494V95.6709Z" fill="#F0F0F0"/>
<path d="M81.0494 98.1367H101.709V96.4762H81.0494V98.1367Z" fill="#F0F0F0"/>
<path d="M81.0494 100.605H101.709V98.945H81.0494V100.605Z" fill="#F0F0F0"/>
<path d="M81.0494 103.072H101.709V101.412H81.0494V103.072Z" fill="#F0F0F0"/>
<path d="M106.187 102.24H125.933L125.933 34.5167H106.187V102.24Z" fill="#FAFAFA"/>
<path d="M105.728 36.9209H126.388V33.597H105.728V36.9209Z" fill="#F0F0F0"/>
<path d="M105.728 38.9492H126.388V37.2887H105.728V38.9492Z" fill="#F0F0F0"/>
<path d="M105.728 41.415H126.388V39.7546H105.728V41.415Z" fill="#F0F0F0"/>
<path d="M105.728 43.8838H126.388V42.2233H105.728V43.8838Z" fill="#F0F0F0"/>
<path d="M105.728 46.3506H126.388V44.6901H105.728V46.3506Z" fill="#F0F0F0"/>
<path d="M105.728 48.8164H126.388V47.1559H105.728V48.8164Z" fill="#F0F0F0"/>
<path d="M105.728 51.2812H126.388V49.6208H105.728V51.2812Z" fill="#F0F0F0"/>
<path d="M105.728 53.7471H126.388V52.0866H105.728V53.7471Z" fill="#F0F0F0"/>
<path d="M105.728 56.2129H126.388V54.5524H105.728V56.2129Z" fill="#F0F0F0"/>
<path d="M105.728 58.6797H126.388V57.0192H105.728V58.6797Z" fill="#F0F0F0"/>
<path d="M105.728 61.1455H126.388V59.485H105.728V61.1455Z" fill="#F0F0F0"/>
<path d="M105.728 63.6113H126.388V61.9509H105.728V63.6113Z" fill="#F0F0F0"/>
<path d="M105.728 66.0771H126.388V64.4167H105.728V66.0771Z" fill="#F0F0F0"/>
<path d="M105.728 68.543H126.388V66.8825H105.728V68.543Z" fill="#F0F0F0"/>
<path d="M105.728 71.0098H126.388V69.3493H105.728V71.0098Z" fill="#F0F0F0"/>
<path d="M105.728 73.4775H126.388V71.8171H105.728V73.4775Z" fill="#F0F0F0"/>
<path d="M105.728 75.9443H126.388V74.2839H105.728V75.9443Z" fill="#F0F0F0"/>
<path d="M105.728 78.4102H126.388V76.7497H105.728V78.4102Z" fill="#F0F0F0"/>
<path d="M105.728 80.875H126.388V79.2145H105.728V80.875Z" fill="#F0F0F0"/>
<path d="M105.728 83.3408H126.388V81.6803H105.728V83.3408Z" fill="#F0F0F0"/>
<path d="M105.728 85.8066H126.388V84.1462H105.728V85.8066Z" fill="#F0F0F0"/>
<path d="M105.728 88.2734H126.388V86.613H105.728V88.2734Z" fill="#F0F0F0"/>
<path d="M105.728 90.7393H126.388V89.0788H105.728V90.7393Z" fill="#F0F0F0"/>
<path d="M105.728 93.2051H126.388V91.5446H105.728V93.2051Z" fill="#F0F0F0"/>
<path d="M105.728 95.6709H126.388V94.0104H105.728V95.6709Z" fill="#F0F0F0"/>
<path d="M105.728 98.1367H126.388V96.4762H105.728V98.1367Z" fill="#F0F0F0"/>
<path d="M105.728 100.605H126.388V98.945H105.728V100.605Z" fill="#F0F0F0"/>
<path d="M105.728 103.072H126.388V101.412H105.728V103.072Z" fill="#F0F0F0"/>
<path d="M44.8174 102.654H64.5635L64.5635 34.9307H44.8174L44.8174 102.654Z" fill="#FAFAFA"/>
<path d="M44.359 37.3359H65.0186V34.0121H44.359V37.3359Z" fill="#F0F0F0"/>
<path d="M44.359 38.0098H65.0186V37.7033H44.359V38.0098Z" fill="#F0F0F0"/>
<path d="M44.359 38.7041H65.0186V38.3977H44.359V38.7041Z" fill="#F0F0F0"/>
<path d="M44.359 39.3955H65.0186V39.0891H44.359V39.3955Z" fill="#F0F0F0"/>
<path d="M44.359 40.0898H65.0186V39.7834H44.359V40.0898Z" fill="#F0F0F0"/>
<path d="M44.359 40.7852H65.0186V40.4787H44.359V40.7852Z" fill="#F0F0F0"/>
<path d="M44.359 41.4795H65.0186V41.1731H44.359V41.4795Z" fill="#F0F0F0"/>
<path d="M44.359 42.1709H65.0186V41.8645H44.359V42.1709Z" fill="#F0F0F0"/>
<path d="M44.359 42.8652H65.0186V42.5588H44.359V42.8652Z" fill="#F0F0F0"/>
<path d="M44.359 43.5625H65.0186V43.2561H44.359V43.5625Z" fill="#F0F0F0"/>
<path d="M44.359 44.2549H65.0186V43.9485H44.359V44.2549Z" fill="#F0F0F0"/>
<path d="M44.359 44.9492H65.0186V44.6428H44.359V44.9492Z" fill="#F0F0F0"/>
<path d="M44.359 45.6406H65.0186V45.3342H44.359V45.6406Z" fill="#F0F0F0"/>
<path d="M44.359 46.3389H65.0186V46.0325H44.359V46.3389Z" fill="#F0F0F0"/>
<path d="M44.359 47.0293H65.0186V46.7229H44.359V47.0293Z" fill="#F0F0F0"/>
<path d="M44.359 47.7246H65.0186V47.4182H44.359V47.7246Z" fill="#F0F0F0"/>
<path d="M44.359 48.416H65.0186V48.1096H44.359V48.416Z" fill="#F0F0F0"/>
<path d="M44.359 49.1104H65.0186V48.8039H44.359V49.1104Z" fill="#F0F0F0"/>
<path d="M44.359 49.8047H65.0186V49.4983H44.359V49.8047Z" fill="#F0F0F0"/>
<path d="M20.1348 102.654H39.8809L39.8809 34.9307H20.1348L20.1348 102.654Z" fill="#FAFAFA"/>
<path d="M19.6763 37.3359H40.3359V34.0121H19.6763V37.3359Z" fill="#F0F0F0"/>
<path d="M19.6763 38.0098H40.3359V37.7033H19.6763V38.0098Z" fill="#F0F0F0"/>
<path d="M19.6763 38.7041H40.3359V38.3977H19.6763V38.7041Z" fill="#F0F0F0"/>
<path d="M19.6763 39.3955H40.3359V39.0891H19.6763V39.3955Z" fill="#F0F0F0"/>
<path d="M19.6763 40.0898H40.3359V39.7834H19.6763V40.0898Z" fill="#F0F0F0"/>
<path d="M19.6763 40.7852H40.3359V40.4787H19.6763V40.7852Z" fill="#F0F0F0"/>
<path d="M19.6763 41.4795H40.3359V41.1731H19.6763V41.4795Z" fill="#F0F0F0"/>
<path d="M19.6763 42.1709H40.3359V41.8645H19.6763V42.1709Z" fill="#F0F0F0"/>
<path d="M19.6763 42.8652H40.3359V42.5588H19.6763V42.8652Z" fill="#F0F0F0"/>
<path d="M19.6763 43.5625H40.3359V43.2561H19.6763V43.5625Z" fill="#F0F0F0"/>
<path d="M19.6763 44.2549H40.3359V43.9485H19.6763V44.2549Z" fill="#F0F0F0"/>
<path d="M19.6763 44.9492H40.3359V44.6428H19.6763V44.9492Z" fill="#F0F0F0"/>
<path d="M19.6763 45.6406H40.3359V45.3342H19.6763V45.6406Z" fill="#F0F0F0"/>
<path d="M19.6763 46.3389H40.3359V46.0325H19.6763V46.3389Z" fill="#F0F0F0"/>
<path d="M19.6763 47.0293H40.3359V46.7229H19.6763V47.0293Z" fill="#F0F0F0"/>
<path d="M19.6763 47.7246H40.3359V47.4182H19.6763V47.7246Z" fill="#F0F0F0"/>
<path d="M19.6763 48.416H40.3359V48.1096H19.6763V48.416Z" fill="#F0F0F0"/>
<path d="M19.6763 49.1104H40.3359V48.8039H19.6763V49.1104Z" fill="#F0F0F0"/>
<path d="M19.6763 49.8047H40.3359V49.4983H19.6763V49.8047Z" fill="#F0F0F0"/>
<path d="M72.8474 111.093C72.8474 111.093 71.4728 108.073 73.0446 105.093C74.6164 102.114 75.0746 101.416 74.0683 100.807C73.062 100.197 72.6183 103.188 72.6183 103.188C72.1214 101.835 72.0706 100.358 72.4733 98.9739C73.1693 96.8202 73.6072 93.3125 72.656 92.9361C71.7048 92.5596 72.4733 97.3134 71.6468 98.9331C71.2261 97.7953 70.9541 96.6074 70.8377 95.3991C70.7246 93.6685 70.9015 90.9079 70.1504 90.1988C69.3993 89.4896 68.9179 89.9799 69.6545 93.797C70.0989 96.0784 70.3444 98.3946 70.3882 100.719C70.3882 100.719 68.7584 95.7113 67.6622 95.5654C66.566 95.4195 66.566 97.042 67.5056 98.4486C68.4452 99.8552 70.2519 102.374 70.5477 103.672C70.5477 103.672 68.7555 99.9019 67.1431 101.046C65.5307 102.19 68.5467 104.478 69.8923 105.301C71.2379 106.124 72.1572 111.298 72.1572 111.298L72.8474 111.093Z" fill="#E0E0E0"/>
<path d="M71.7633 112.331C71.7633 112.331 73.103 109.29 71.4964 106.337C69.8898 103.384 69.423 102.689 70.4177 102.065C71.4124 101.44 71.9083 104.423 71.9083 104.423C72.3899 103.065 72.4245 101.588 72.0069 100.209C71.2819 98.0667 70.8033 94.5648 71.7516 94.1737C72.6999 93.7827 71.9865 98.5511 72.8304 100.156C73.2377 99.0128 73.4951 97.8208 73.596 96.6105C73.6917 94.877 73.4801 92.1193 74.2225 91.3985C74.9649 90.6777 75.455 91.1621 74.759 94.9908C74.3422 97.2777 74.1249 99.5968 74.1094 101.922C74.1094 101.922 75.6811 96.8906 76.7744 96.7272C77.8677 96.5638 77.888 98.1863 76.9658 99.6075C76.0436 101.029 74.2659 103.576 73.9846 104.878C73.9846 104.878 75.7246 101.084 77.3574 102.211C78.9901 103.337 75.9972 105.666 74.6632 106.506C73.3292 107.347 72.4564 112.521 72.4564 112.521L71.7633 112.331Z" fill="#EBEBEB"/>
<path d="M77.9404 110.162H66.874L67.7701 118.132H77.0443L77.9404 110.162Z" fill="#EBEBEB"/>
<path d="M72.4996 130.722C103.553 130.722 128.728 129.243 128.728 127.419C128.728 125.594 103.553 124.115 72.4996 124.115C41.4457 124.115 16.2715 125.594 16.2715 127.419C16.2715 129.243 41.4457 130.722 72.4996 130.722Z" fill="#F5F5F5"/>
<path d="M112.711 94.317C112.711 94.317 105.533 92.8579 98.6053 93.5641C91.6772 94.2703 101.865 103.381 101.865 103.381H103.298C103.298 103.381 97.8977 97.6059 98.1993 96.1672C98.5009 94.7285 112.096 96.6253 112.096 96.6253L112.711 94.317Z" fill="#263238"/>
<path opacity="0.2" d="M112.711 94.317C112.711 94.317 105.533 92.8579 98.6053 93.5641C91.6772 94.2703 101.865 103.381 101.865 103.381H103.298C103.298 103.381 97.8977 97.6059 98.1993 96.1672C98.5009 94.7285 112.096 96.6253 112.096 96.6253L112.711 94.317Z" fill="white"/>
<path d="M110.121 103.066C112.386 94.1405 113.699 84.9974 114.036 75.7919C114.071 74.9165 114.44 74.0886 115.068 73.4814C115.696 72.8743 116.532 72.5352 117.403 72.5352H123.444C124.334 72.5351 125.189 72.89 125.82 73.5222C126.452 74.1543 126.809 75.0123 126.814 75.9086C126.837 81.4533 126.451 93.8675 123.334 103.066H110.121Z" fill="#263238"/>
<path opacity="0.4" d="M110.121 103.066C112.386 94.1405 113.699 84.9974 114.036 75.7919C114.071 74.9165 114.44 74.0886 115.068 73.4814C115.696 72.8743 116.532 72.5352 117.403 72.5352H123.444C124.334 72.5351 125.189 72.89 125.82 73.5222C126.452 74.1543 126.809 75.0123 126.814 75.9086C126.837 81.4533 126.451 93.8675 123.334 103.066H110.121Z" fill="white"/>
<path d="M108.359 101.522C109.339 97.7869 111.549 88.1275 112.016 75.366C112.052 74.4169 112.452 73.5187 113.132 72.8602C113.813 72.2018 114.72 71.8343 115.664 71.835H122.212C123.177 71.8357 124.102 72.2207 124.786 72.9059C125.469 73.5911 125.856 74.5206 125.86 75.4915C125.886 81.4914 125.469 93.7626 122.105 103.734L109.635 103.273C109.428 103.264 109.226 103.208 109.044 103.109C108.861 103.011 108.703 102.873 108.581 102.705C108.458 102.537 108.375 102.343 108.337 102.139C108.298 101.934 108.306 101.723 108.359 101.522V101.522Z" fill="#407BFF"/>
<path opacity="0.2" d="M108.359 101.522C109.339 97.7869 111.549 88.1275 112.016 75.366C112.052 74.4169 112.452 73.5187 113.132 72.8602C113.813 72.2018 114.72 71.8343 115.664 71.835H122.212C123.177 71.8357 124.102 72.2207 124.786 72.9059C125.469 73.5911 125.856 74.5206 125.86 75.4915C125.886 81.4914 125.469 93.7626 122.105 103.734L109.635 103.273C109.428 103.264 109.226 103.208 109.044 103.109C108.861 103.011 108.703 102.873 108.581 102.705C108.458 102.537 108.375 102.343 108.337 102.139C108.298 101.934 108.306 101.723 108.359 101.522V101.522Z" fill="black"/>
<path d="M121.312 103.357H99.1652V99.876C99.1652 99.489 99.3179 99.1178 99.5899 98.8442C99.8618 98.5706 100.231 98.4168 100.615 98.4168H119.862C120.247 98.4168 120.616 98.5706 120.888 98.8442C121.16 99.1178 121.312 99.489 121.312 99.876V103.357Z" fill="#407BFF"/>
<path d="M120.599 120.727L113.503 120.024V109.988H110.69V120.021L103.564 120.727C103.223 120.761 102.906 120.921 102.675 121.177C102.445 121.432 102.317 121.765 102.317 122.111V123.185H121.846V122.111C121.846 121.765 121.718 121.432 121.488 121.177C121.257 120.921 120.94 120.761 120.599 120.727V120.727Z" fill="#263238"/>
<path opacity="0.4" d="M120.599 120.727L113.503 120.024V109.988H110.69V120.021L103.564 120.727C103.223 120.761 102.906 120.921 102.675 121.177C102.445 121.432 102.317 121.765 102.317 122.111V123.185H121.846V122.111C121.846 121.765 121.718 121.432 121.488 121.177C121.257 120.921 120.94 120.761 120.599 120.727V120.727Z" fill="white"/>
<path d="M104.908 124.512C104.908 124.878 104.8 125.236 104.598 125.54C104.396 125.844 104.109 126.082 103.773 126.222C103.437 126.362 103.067 126.398 102.71 126.327C102.354 126.255 102.026 126.079 101.769 125.821C101.512 125.562 101.337 125.232 101.266 124.873C101.195 124.514 101.231 124.142 101.37 123.804C101.51 123.466 101.745 123.177 102.048 122.974C102.35 122.771 102.705 122.662 103.069 122.662C103.557 122.662 104.024 122.857 104.369 123.204C104.714 123.551 104.908 124.022 104.908 124.512Z" fill="#263238"/>
<path opacity="0.4" d="M103.068 125.486C102.877 125.486 102.689 125.429 102.53 125.322C102.371 125.215 102.247 125.063 102.173 124.885C102.1 124.707 102.081 124.511 102.118 124.322C102.156 124.133 102.248 123.959 102.383 123.823C102.519 123.686 102.691 123.593 102.879 123.556C103.067 123.518 103.262 123.538 103.439 123.611C103.616 123.685 103.767 123.81 103.874 123.97C103.98 124.131 104.037 124.319 104.037 124.512C104.036 124.77 103.934 125.018 103.752 125.2C103.571 125.383 103.325 125.486 103.068 125.486V125.486Z" fill="white"/>
<path d="M119.257 124.512C119.257 124.878 119.365 125.236 119.567 125.54C119.769 125.844 120.056 126.082 120.392 126.222C120.728 126.362 121.097 126.398 121.454 126.327C121.811 126.255 122.138 126.079 122.396 125.821C122.653 125.562 122.828 125.232 122.899 124.873C122.97 124.514 122.933 124.142 122.794 123.804C122.655 123.466 122.419 123.177 122.117 122.974C121.815 122.771 121.459 122.662 121.095 122.662C120.854 122.662 120.615 122.709 120.391 122.802C120.168 122.895 119.965 123.031 119.795 123.203C119.624 123.375 119.488 123.579 119.396 123.804C119.304 124.028 119.256 124.269 119.257 124.512V124.512Z" fill="#263238"/>
<path opacity="0.4" d="M121.096 125.486C120.904 125.486 120.717 125.429 120.557 125.322C120.398 125.215 120.274 125.063 120.201 124.885C120.127 124.707 120.108 124.511 120.146 124.322C120.183 124.133 120.275 123.959 120.411 123.823C120.546 123.686 120.719 123.593 120.907 123.556C121.094 123.518 121.289 123.538 121.466 123.611C121.643 123.685 121.794 123.81 121.901 123.97C122.007 124.131 122.064 124.319 122.064 124.512C122.064 124.77 121.962 125.018 121.78 125.201C121.599 125.384 121.352 125.486 121.096 125.486V125.486Z" fill="white"/>
<path d="M110.199 103.206H113.969V110.939C113.969 111.259 113.843 111.566 113.618 111.792C113.394 112.018 113.089 112.145 112.771 112.145H111.388C111.07 112.145 110.766 112.018 110.541 111.792C110.317 111.566 110.19 111.259 110.19 110.939V103.206H110.199Z" fill="#263238"/>
<path opacity="0.2" d="M110.199 103.206H113.969V110.939C113.969 111.259 113.843 111.566 113.618 111.792C113.394 112.018 113.089 112.145 112.771 112.145H111.388C111.07 112.145 110.766 112.018 110.541 111.792C110.317 111.566 110.19 111.259 110.19 110.939V103.206H110.199Z" fill="white"/>
<path d="M98.9679 104.233H123.006C123.328 104.233 123.589 103.971 123.589 103.647V103.373C123.589 103.049 123.328 102.786 123.006 102.786H98.9679C98.6459 102.786 98.385 103.049 98.385 103.373V103.647C98.385 103.971 98.6459 104.233 98.9679 104.233Z" fill="#263238"/>
<g opacity="0.4">
<path opacity="0.4" d="M98.9679 104.232H123.006C123.328 104.232 123.589 103.97 123.589 103.646V103.372C123.589 103.048 123.328 102.785 123.006 102.785H98.9679C98.6459 102.785 98.385 103.048 98.385 103.372V103.646C98.385 103.97 98.6459 104.232 98.9679 104.232Z" fill="white"/>
</g>
<path d="M125.471 94.317C125.471 94.317 118.293 92.8579 111.365 93.5641C104.437 94.2703 114.625 103.381 114.625 103.381H116.057C116.057 103.381 110.657 97.6059 110.959 96.1672C111.261 94.7285 124.856 96.6253 124.856 96.6253L125.471 94.317Z" fill="#263238"/>
<path opacity="0.4" d="M125.471 94.317C125.471 94.317 118.293 92.8579 111.365 93.5641C104.437 94.2703 114.625 103.381 114.625 103.381H116.057C116.057 103.381 110.657 97.6059 110.959 96.1672C111.261 94.7285 124.856 96.6253 124.856 96.6253L125.471 94.317Z" fill="white"/>
<path d="M36.9137 95.882V96.1739H32.4941V95.9491C32.4941 95.4093 33.0509 94.9657 33.7643 94.9365H33.9992L35.4956 94.8752C36.267 94.8373 36.9137 95.2984 36.9137 95.882Z" fill="#263238"/>
<path opacity="0.2" d="M34.8779 95.882V96.1739H32.4941V95.9492C32.4941 95.4093 33.0509 94.9657 33.7643 94.9365H33.9992C34.5096 95.0708 34.8779 95.4443 34.8779 95.882Z" fill="white"/>
<path d="M72.9517 126.348H73.3954C73.4221 126.348 73.4478 126.338 73.4673 126.319C73.4867 126.301 73.4983 126.276 73.4998 126.249L74.2016 98.8496H72.1455L72.8502 126.249C72.851 126.276 72.862 126.301 72.8809 126.319C72.8999 126.338 72.9253 126.348 72.9517 126.348V126.348Z" fill="#263238"/>
<path d="M88.8084 126.348H89.835L86.935 98.8496H84.8789L88.8084 126.348Z" fill="#263238"/>
<path d="M22.6136 126.348L26.5518 98.8496H24.4986L21.5986 126.348H22.6136Z" fill="#263238"/>
<path d="M37.6674 126.348H38.8477H38.8506L39.2856 98.8496H37.2324L37.6674 126.348Z" fill="#263238"/>
<g opacity="0.4">
<path opacity="0.4" d="M88.8084 126.348H89.835L86.935 98.8496H84.8789L88.8084 126.348Z" fill="white"/>
</g>
<path opacity="0.4" d="M37.6674 126.348H38.8477H38.8506L39.2856 98.8496H37.2324L37.6674 126.348Z" fill="white"/>
<g opacity="0.2">
<path opacity="0.2" d="M72.9507 126.348H73.3944C73.4211 126.348 73.4469 126.338 73.4663 126.319C73.4857 126.301 73.4974 126.276 73.4988 126.249L74.2006 98.8496H72.1445L72.8492 126.249C72.85 126.276 72.861 126.301 72.88 126.319C72.8989 126.338 72.9243 126.348 72.9507 126.348V126.348Z" fill="white"/>
</g>
<path opacity="0.2" d="M22.6136 126.348L26.5518 98.8496H24.4986L21.5986 126.348H22.6136Z" fill="white"/>
<path d="M41.2461 96.3279H47.0954L48.0263 88.1102C48.0174 87.9615 47.9524 87.8219 47.8446 87.7199C47.7368 87.6179 47.5943 87.5613 47.4463 87.5615H43.5342C43.3862 87.5613 43.2437 87.6179 43.1359 87.7199C43.0281 87.8219 42.9631 87.9615 42.9542 88.1102L41.2461 96.3279Z" fill="#263238"/>
<path d="M32.3199 75.4777H33.7699L35.4113 90.9969H33.9613C33.8412 90.9949 33.7259 90.9491 33.6369 90.868C33.5478 90.787 33.491 90.6762 33.477 90.5562L31.9284 75.9183C31.9208 75.8626 31.9253 75.8059 31.9417 75.7522C31.958 75.6984 31.9857 75.6489 32.023 75.607C32.0602 75.5651 32.106 75.5318 32.1573 75.5095C32.2086 75.4871 32.264 75.4763 32.3199 75.4777V75.4777Z" fill="#263238"/>
<path d="M34.5794 90.9968H56.4628C56.5185 90.9977 56.5738 90.9865 56.6248 90.964C56.6758 90.9415 56.7214 90.9083 56.7586 90.8665C56.7957 90.8247 56.8235 90.7754 56.84 90.7218C56.8565 90.6683 56.8614 90.6118 56.8543 90.5562L55.3057 75.9183C55.2911 75.7985 55.2341 75.6881 55.1452 75.6072C55.0562 75.5262 54.9413 75.4803 54.8214 75.4777H32.938C32.8822 75.4763 32.8267 75.4871 32.7755 75.5095C32.7242 75.5318 32.6784 75.5651 32.6411 75.607C32.6039 75.6489 32.5762 75.6984 32.5598 75.7522C32.5435 75.8059 32.539 75.8626 32.5465 75.9183L34.0922 90.5562C34.1075 90.6762 34.1651 90.7867 34.2545 90.8676C34.3439 90.9485 34.4592 90.9943 34.5794 90.9968V90.9968Z" fill="#263238"/>
<path d="M40.9884 96.3311H48.2587C48.4125 96.3311 48.5371 96.2056 48.5371 96.0509V95.9721C48.5371 95.8174 48.4125 95.692 48.2587 95.692H40.9884C40.8347 95.692 40.71 95.8174 40.71 95.9721V96.0509C40.71 96.2056 40.8347 96.3311 40.9884 96.3311Z" fill="#263238"/>
<path opacity="0.2" d="M34.5794 90.9968H56.4628C56.5185 90.9977 56.5738 90.9865 56.6248 90.964C56.6758 90.9415 56.7214 90.9083 56.7586 90.8665C56.7957 90.8247 56.8235 90.7754 56.84 90.7218C56.8565 90.6683 56.8614 90.6118 56.8543 90.5562L55.3057 75.9183C55.2911 75.7985 55.2341 75.6881 55.1452 75.6072C55.0562 75.5262 54.9413 75.4803 54.8214 75.4777H32.938C32.8822 75.4763 32.8267 75.4871 32.7755 75.5095C32.7242 75.5318 32.6784 75.5651 32.6411 75.607C32.6039 75.6489 32.5762 75.6984 32.5598 75.7522C32.5435 75.8059 32.539 75.8626 32.5465 75.9183L34.0922 90.5562C34.1075 90.6762 34.1651 90.7867 34.2545 90.8676C34.3439 90.9485 34.4592 90.9943 34.5794 90.9968V90.9968Z" fill="white"/>
<path d="M34.988 89.5642H55.6215C55.6708 89.5664 55.72 89.5576 55.7656 89.5385C55.8112 89.5194 55.8521 89.4905 55.8853 89.4537C55.9185 89.4169 55.9433 89.3733 55.9578 89.3258C55.9724 89.2783 55.9764 89.2282 55.9695 89.179L54.621 76.4088C54.6084 76.304 54.5587 76.2073 54.4809 76.1365C54.4031 76.0657 54.3025 76.0256 54.1976 76.0236H33.5554C33.5065 76.0222 33.458 76.0316 33.4131 76.0511C33.3682 76.0706 33.3281 76.0997 33.2956 76.1363C33.263 76.173 33.2388 76.2164 33.2245 76.2634C33.2103 76.3105 33.2064 76.3601 33.2132 76.4088L34.5646 89.179C34.5772 89.2838 34.6269 89.3804 34.7047 89.4512C34.7825 89.522 34.8831 89.5621 34.988 89.5642Z" fill="#407BFF"/>
<path opacity="0.2" d="M40.9884 96.3311H48.2587C48.4125 96.3311 48.5371 96.2056 48.5371 96.0509V95.9721C48.5371 95.8174 48.4125 95.692 48.2587 95.692H40.9884C40.8347 95.692 40.71 95.8174 40.71 95.9721V96.0509C40.71 96.2056 40.8347 96.3311 40.9884 96.3311Z" fill="white"/>
<path opacity="0.2" d="M34.988 89.5642H55.6215C55.6708 89.5664 55.72 89.5576 55.7656 89.5385C55.8112 89.5194 55.8521 89.4905 55.8853 89.4537C55.9185 89.4169 55.9433 89.3733 55.9578 89.3258C55.9724 89.2783 55.9764 89.2282 55.9695 89.179L54.621 76.4088C54.6084 76.304 54.5587 76.2073 54.4809 76.1365C54.4031 76.0657 54.3025 76.0256 54.1976 76.0236H33.5554C33.5065 76.0222 33.458 76.0316 33.4131 76.0511C33.3682 76.0706 33.3281 76.0997 33.2956 76.1363C33.263 76.173 33.2388 76.2164 33.2245 76.2634C33.2103 76.3105 33.2064 76.3601 33.2132 76.4088L34.5646 89.179C34.5772 89.2838 34.6269 89.3804 34.7047 89.4512C34.7825 89.522 34.8831 89.5621 34.988 89.5642Z" fill="black"/>
<path d="M41.1243 96.1445H36.0435H23.3096V98.8497H36.0435H41.1243H88.1246V96.1445H41.1243Z" fill="#407BFF"/>
<path d="M54.305 95.657H54.8502C54.8639 95.657 54.8775 95.6543 54.8901 95.649C54.9028 95.6438 54.9143 95.636 54.924 95.6263C54.9337 95.6165 54.9414 95.6049 54.9466 95.5922C54.9519 95.5794 54.9546 95.5658 54.9546 95.552V94.9683C54.9546 94.9545 54.9519 94.9409 54.9466 94.9281C54.9414 94.9154 54.9337 94.9038 54.924 94.8941C54.9143 94.8843 54.9028 94.8766 54.8901 94.8713C54.8775 94.866 54.8639 94.8633 54.8502 94.8633H54.4587C54.4358 94.8633 54.4137 94.8711 54.3958 94.8854C54.3779 94.8997 54.3653 94.9197 54.3601 94.9421L54.2064 95.5257C54.2018 95.5411 54.2009 95.5573 54.2038 95.5731C54.2066 95.5888 54.2131 95.6037 54.2227 95.6165C54.2323 95.6293 54.2447 95.6396 54.259 95.6466C54.2733 95.6537 54.2891 95.6573 54.305 95.657Z" fill="#407BFF"/>
<path d="M53.5501 95.657H54.0953C54.123 95.657 54.1496 95.646 54.1692 95.6263C54.1887 95.6066 54.1997 95.5799 54.1997 95.552V94.9683C54.1997 94.9405 54.1887 94.9138 54.1692 94.8941C54.1496 94.8743 54.123 94.8633 54.0953 94.8633H53.7038C53.681 94.8633 53.6588 94.8711 53.6409 94.8854C53.623 94.8997 53.6105 94.9197 53.6052 94.9421L53.4486 95.5257C53.4446 95.5413 53.4442 95.5576 53.4475 95.5733C53.4507 95.589 53.4575 95.6038 53.4673 95.6165C53.4771 95.6292 53.4897 95.6394 53.504 95.6465C53.5184 95.6535 53.5342 95.6571 53.5501 95.657V95.657Z" fill="#407BFF"/>
<path d="M52.7972 95.657H53.3424C53.3561 95.657 53.3697 95.6543 53.3824 95.649C53.395 95.6438 53.4065 95.636 53.4162 95.6263C53.4259 95.6165 53.4336 95.6049 53.4389 95.5922C53.4441 95.5794 53.4468 95.5658 53.4468 95.552V94.9683C53.4468 94.9545 53.4441 94.9409 53.4389 94.9281C53.4336 94.9154 53.4259 94.9038 53.4162 94.8941C53.4065 94.8843 53.395 94.8766 53.3824 94.8713C53.3697 94.866 53.3561 94.8633 53.3424 94.8633H52.9509C52.9278 94.8637 52.9055 94.8716 52.8872 94.8858C52.8689 94.8999 52.8556 94.9197 52.8494 94.9421L52.6957 95.5257C52.6917 95.5413 52.6913 95.5576 52.6945 95.5733C52.6978 95.589 52.7046 95.6038 52.7144 95.6165C52.7242 95.6292 52.7367 95.6394 52.7511 95.6465C52.7655 95.6535 52.7812 95.6571 52.7972 95.657V95.657Z" fill="#407BFF"/>
<path d="M52.0424 95.657H52.5876C52.6152 95.657 52.6418 95.646 52.6614 95.6263C52.681 95.6066 52.692 95.5799 52.692 95.552V94.9683C52.692 94.9405 52.681 94.9138 52.6614 94.8941C52.6418 94.8743 52.6152 94.8633 52.5876 94.8633H52.199C52.1759 94.8637 52.1535 94.8716 52.1352 94.8858C52.1169 94.8999 52.1037 94.9197 52.0975 94.9421L51.9438 95.5257C51.9398 95.541 51.9394 95.5571 51.9425 95.5726C51.9455 95.5881 51.9521 95.6027 51.9615 95.6153C51.971 95.628 51.9832 95.6383 51.9972 95.6455C52.0112 95.6527 52.0266 95.6567 52.0424 95.657V95.657Z" fill="#407BFF"/>
<path d="M51.2894 95.657H51.8346C51.8623 95.657 51.8888 95.646 51.9084 95.6263C51.928 95.6066 51.939 95.5799 51.939 95.552V94.9683C51.939 94.9405 51.928 94.9138 51.9084 94.8941C51.8888 94.8743 51.8623 94.8633 51.8346 94.8633H51.4431C51.42 94.8637 51.3976 94.8716 51.3794 94.8858C51.3611 94.8999 51.3478 94.9197 51.3416 94.9421L51.1879 95.5257C51.1839 95.5413 51.1835 95.5576 51.1867 95.5733C51.19 95.589 51.1968 95.6038 51.2066 95.6165C51.2164 95.6292 51.2289 95.6394 51.2433 95.6465C51.2577 95.6535 51.2734 95.6571 51.2894 95.657V95.657Z" fill="#407BFF"/>
<path d="M50.5345 95.657H51.0797C51.1074 95.657 51.1339 95.646 51.1535 95.6263C51.1731 95.6066 51.1841 95.5799 51.1841 95.552V94.9683C51.1841 94.9405 51.1731 94.9138 51.1535 94.8941C51.1339 94.8743 51.1074 94.8633 51.0797 94.8633H50.6882C50.6651 94.8637 50.6428 94.8716 50.6245 94.8858C50.6062 94.8999 50.5929 94.9197 50.5867 94.9421L50.433 95.5257C50.429 95.5413 50.4286 95.5576 50.4319 95.5733C50.4351 95.589 50.4419 95.6038 50.4517 95.6165C50.4615 95.6292 50.474 95.6394 50.4884 95.6465C50.5028 95.6535 50.5185 95.6571 50.5345 95.657V95.657Z" fill="#407BFF"/>
<path d="M49.7806 95.657H50.3258C50.3535 95.657 50.38 95.646 50.3996 95.6263C50.4192 95.6066 50.4302 95.5799 50.4302 95.552V94.9683C50.4302 94.9405 50.4192 94.9138 50.3996 94.8941C50.38 94.8743 50.3535 94.8633 50.3258 94.8633H49.9343C49.9111 94.8632 49.8885 94.8709 49.8701 94.8852C49.8517 94.8994 49.8386 94.9195 49.8328 94.9421L49.6791 95.5257C49.6751 95.5413 49.6747 95.5576 49.678 95.5733C49.6812 95.589 49.688 95.6038 49.6978 95.6165C49.7076 95.6292 49.7201 95.6394 49.7345 95.6465C49.7489 95.6535 49.7646 95.6571 49.7806 95.657V95.657Z" fill="#407BFF"/>
<path d="M49.0277 95.657H49.5729C49.5866 95.657 49.6001 95.6543 49.6128 95.6491C49.6255 95.6438 49.637 95.636 49.6467 95.6263C49.6564 95.6165 49.6641 95.6049 49.6693 95.5922C49.6746 95.5794 49.6773 95.5658 49.6773 95.552V94.9683C49.6773 94.9545 49.6746 94.9409 49.6693 94.9281C49.6641 94.9154 49.6564 94.9038 49.6467 94.8941C49.637 94.8843 49.6255 94.8766 49.6128 94.8713C49.6001 94.866 49.5866 94.8633 49.5729 94.8633H49.1814C49.1581 94.8632 49.1356 94.8709 49.1172 94.8852C49.0988 94.8994 49.0857 94.9195 49.0799 94.9421L48.9262 95.5257C48.9222 95.5413 48.9218 95.5576 48.925 95.5733C48.9283 95.589 48.935 95.6038 48.9448 95.6165C48.9546 95.6292 48.9672 95.6394 48.9816 95.6465C48.9959 95.6535 49.0117 95.6571 49.0277 95.657V95.657Z" fill="#407BFF"/>
<path d="M48.2728 95.657H48.818C48.8457 95.657 48.8723 95.646 48.8918 95.6263C48.9114 95.6066 48.9224 95.5799 48.9224 95.552V94.9683C48.9224 94.9405 48.9114 94.9138 48.8918 94.8941C48.8723 94.8743 48.8457 94.8633 48.818 94.8633H48.4294C48.4062 94.8632 48.3836 94.8709 48.3652 94.8852C48.3469 94.8994 48.3337 94.9195 48.3279 94.9421L48.1742 95.5257C48.1703 95.541 48.1698 95.5571 48.1729 95.5726C48.176 95.5881 48.1825 95.6027 48.192 95.6153C48.2015 95.628 48.2137 95.6383 48.2277 95.6455C48.2417 95.6527 48.2571 95.6567 48.2728 95.657V95.657Z" fill="#407BFF"/>
<path d="M47.5189 95.657H48.0641C48.0918 95.657 48.1183 95.646 48.1379 95.6263C48.1575 95.6066 48.1685 95.5799 48.1685 95.552V94.9683C48.1685 94.9405 48.1575 94.9138 48.1379 94.8941C48.1183 94.8743 48.0918 94.8633 48.0641 94.8633H47.6726C47.6494 94.8632 47.6268 94.8709 47.6084 94.8852C47.59 94.8994 47.5769 94.9195 47.5711 94.9421L47.4174 95.5257C47.4134 95.5413 47.413 95.5576 47.4162 95.5733C47.4195 95.589 47.4263 95.6038 47.4361 95.6165C47.4459 95.6292 47.4584 95.6394 47.4728 95.6465C47.4871 95.6535 47.5029 95.6571 47.5189 95.657V95.657Z" fill="#407BFF"/>
<path d="M46.765 95.6571H47.3102C47.3379 95.6571 47.3644 95.646 47.384 95.6263C47.4036 95.6066 47.4146 95.5799 47.4146 95.552V94.9684C47.4146 94.9405 47.4036 94.9138 47.384 94.8941C47.3644 94.8744 47.3379 94.8633 47.3102 94.8633H46.9187C46.8953 94.8627 46.8725 94.8702 46.854 94.8845C46.8355 94.8989 46.8225 94.9192 46.8172 94.9421L46.6635 95.5258C46.6595 95.5413 46.6591 95.5576 46.6623 95.5733C46.6656 95.5891 46.6723 95.6038 46.6821 95.6165C46.6919 95.6292 46.7045 95.6395 46.7189 95.6465C46.7332 95.6535 46.749 95.6571 46.765 95.6571V95.6571Z" fill="#407BFF"/>
<path d="M46.0111 95.6571H46.5563C46.57 95.6571 46.5836 95.6544 46.5962 95.6491C46.6089 95.6438 46.6204 95.6361 46.6301 95.6263C46.6398 95.6166 46.6475 95.605 46.6527 95.5922C46.658 95.5795 46.6607 95.5658 46.6607 95.552V94.9684C46.6607 94.9546 46.658 94.9409 46.6527 94.9282C46.6475 94.9154 46.6398 94.9038 46.6301 94.8941C46.6204 94.8843 46.6089 94.8766 46.5962 94.8713C46.5836 94.866 46.57 94.8633 46.5563 94.8633H46.1648C46.1414 94.8627 46.1186 94.8702 46.1001 94.8845C46.0816 94.8989 46.0686 94.9192 46.0633 94.9421L45.9096 95.5258C45.9056 95.5413 45.9052 95.5576 45.9084 95.5733C45.9117 95.5891 45.9184 95.6038 45.9282 95.6165C45.938 95.6292 45.9506 95.6395 45.965 95.6465C45.9793 95.6535 45.9951 95.6571 46.0111 95.6571V95.6571Z" fill="#407BFF"/>
<path d="M45.2562 95.6571H45.8014C45.8291 95.6571 45.8556 95.646 45.8752 95.6263C45.8948 95.6066 45.9058 95.5799 45.9058 95.552V94.9684C45.9058 94.9405 45.8948 94.9138 45.8752 94.8941C45.8556 94.8744 45.8291 94.8633 45.8014 94.8633H45.4099C45.3865 94.8627 45.3637 94.8702 45.3452 94.8845C45.3267 94.8989 45.3137 94.9192 45.3084 94.9421L45.1547 95.5258C45.1507 95.5413 45.1503 95.5576 45.1535 95.5733C45.1568 95.5891 45.1636 95.6038 45.1734 95.6165C45.1832 95.6292 45.1957 95.6395 45.2101 95.6465C45.2244 95.6535 45.2402 95.6571 45.2562 95.6571V95.6571Z" fill="#407BFF"/>
<path d="M44.5004 95.6571H45.0485C45.0762 95.6571 45.1028 95.646 45.1223 95.6263C45.1419 95.6066 45.1529 95.5799 45.1529 95.552V94.9684C45.1529 94.9405 45.1419 94.9138 45.1223 94.8941C45.1028 94.8744 45.0762 94.8633 45.0485 94.8633H44.6599C44.6366 94.8627 44.6137 94.8702 44.5952 94.8845C44.5768 94.8989 44.5637 94.9192 44.5584 94.9421L44.4047 95.5258C44.4008 95.5409 44.4003 95.5566 44.4032 95.5719C44.4062 95.5872 44.4124 95.6017 44.4216 95.6143C44.4307 95.6269 44.4426 95.6372 44.4562 95.6446C44.4698 95.652 44.4849 95.6563 44.5004 95.6571V95.6571Z" fill="#407BFF"/>
<path d="M43.7455 95.657H44.2936C44.3213 95.657 44.3478 95.646 44.3674 95.6263C44.387 95.6066 44.398 95.5799 44.398 95.552V94.9683C44.398 94.9405 44.387 94.9138 44.3674 94.8941C44.3478 94.8743 44.3213 94.8633 44.2936 94.8633H43.8992C43.8763 94.8633 43.8542 94.8711 43.8363 94.8854C43.8184 94.8997 43.8058 94.9197 43.8006 94.9421L43.6469 95.5257C43.6429 95.541 43.6425 95.5571 43.6456 95.5726C43.6487 95.5881 43.6552 95.6027 43.6647 95.6153C43.6741 95.628 43.6863 95.6383 43.7003 95.6455C43.7143 95.6527 43.7298 95.6567 43.7455 95.657Z" fill="#407BFF"/>
<path d="M43.1982 96.1768H55.4014V95.2634H43.1982V96.1768Z" fill="#263238"/>
<path opacity="0.2" d="M43.1982 96.1768H55.4014V95.2634H43.1982V96.1768Z" fill="white"/>
<path opacity="0.2" d="M43.2006 96.1768H47.1533V95.2634H43.2006V96.1768Z" fill="white"/>
<path opacity="0.2" d="M36.0439 98.8467H88.125V96.1415H36.0439V98.8467Z" fill="white"/>
<path d="M25.5915 121.953C25.6283 121.876 25.6461 121.791 25.6434 121.706C25.6407 121.62 25.6176 121.537 25.576 121.463C25.5345 121.388 25.4757 121.325 25.4047 121.278C25.3337 121.231 25.2525 121.203 25.1681 121.194C25.2411 120.976 25.246 120.74 25.1823 120.519C25.1185 120.298 24.9891 120.102 24.8114 119.957C24.7694 119.917 24.7153 119.892 24.6577 119.887C24.5952 119.892 24.5362 119.918 24.4895 119.96L23.5035 120.672C23.425 120.721 23.3586 120.788 23.3092 120.867C23.1062 121.258 23.8341 121.763 23.5354 122.087C23.4484 122.18 23.3121 122.198 23.2048 122.265C22.9699 122.414 22.9409 122.738 22.8336 122.995C22.7263 123.251 22.3406 123.447 22.1956 123.211C22.3029 122.965 21.9781 122.755 21.7142 122.723C21.4503 122.691 21.1719 122.677 21.0269 122.431C20.6499 122.761 19.8089 121.848 19.8292 121.468C19.6824 121.497 19.5479 121.57 19.4441 121.678C19.3403 121.786 19.2722 121.924 19.2492 122.072C19.2066 122.38 19.1959 122.691 19.2173 123C19.2173 123.602 19.0143 124.191 19.0259 124.792C19.0259 125.259 19.2144 125.779 19.6378 125.96C19.8495 126.035 20.0749 126.065 20.299 126.047L25.1478 126.015C25.2646 126.025 25.3821 126.006 25.49 125.96C25.7075 125.846 25.7539 125.557 25.78 125.309L26.041 122.128L25.5915 121.953Z" fill="#407BFF"/>
<path opacity="0.3" d="M25.5915 121.953C25.6283 121.876 25.6461 121.791 25.6434 121.706C25.6407 121.62 25.6176 121.537 25.576 121.463C25.5345 121.388 25.4757 121.325 25.4047 121.278C25.3337 121.231 25.2525 121.203 25.1681 121.194C25.2411 120.976 25.246 120.74 25.1823 120.519C25.1185 120.298 24.9891 120.102 24.8114 119.957C24.7694 119.917 24.7153 119.892 24.6577 119.887C24.5952 119.892 24.5362 119.918 24.4895 119.96L23.5035 120.672C23.425 120.721 23.3586 120.788 23.3092 120.867C23.1062 121.258 23.8341 121.763 23.5354 122.087C23.4484 122.18 23.3121 122.198 23.2048 122.265C22.9699 122.414 22.9409 122.738 22.8336 122.995C22.7263 123.251 22.3406 123.447 22.1956 123.211C22.3029 122.965 21.9781 122.755 21.7142 122.723C21.4503 122.691 21.1719 122.677 21.0269 122.431C20.6499 122.761 19.8089 121.848 19.8292 121.468C19.6824 121.497 19.5479 121.57 19.4441 121.678C19.3403 121.786 19.2722 121.924 19.2492 122.072C19.2066 122.38 19.1959 122.691 19.2173 123C19.2173 123.602 19.0143 124.191 19.0259 124.792C19.0259 125.259 19.2144 125.779 19.6378 125.96C19.8495 126.035 20.0749 126.065 20.299 126.047L25.1478 126.015C25.2646 126.025 25.3821 126.006 25.49 125.96C25.7075 125.846 25.7539 125.557 25.78 125.309L26.041 122.128L25.5915 121.953Z" fill="white"/>
<path d="M25.8742 116.797H18.3516L18.4125 117.561L18.456 118.107L18.572 119.528L18.6387 120.345L18.7257 121.434L18.7605 121.898V122.038L18.804 122.587L18.8649 123.337L18.8997 123.801L18.9403 124.276L18.9838 124.822L19.0186 125.236L19.0534 125.703L19.0708 125.908H25.9902V125.703L26.0279 125.239L26.0627 124.822L26.1062 124.273L26.1439 123.801L26.1816 123.337L26.2425 122.584L26.286 122.038V121.898L26.3208 121.434L26.4107 120.345L26.4745 119.531L26.5876 118.107L26.634 117.561L26.6949 116.797H25.8742ZM26.3266 117.299L26.1816 117.153H26.3382L26.3266 117.299ZM26.2889 117.763L26.2744 117.947L25.6016 118.627L24.8302 117.847L25.5204 117.153H25.6828L26.2889 117.763ZM26.0946 120.185L25.6016 120.681L24.8302 119.905L25.6016 119.129L26.1352 119.666L26.0946 120.185ZM18.9374 119.666L19.471 119.129L20.2424 119.905L19.471 120.681L18.978 120.185L18.9374 119.666ZM25.3522 118.886L24.5808 119.663L23.8094 118.886L24.5808 118.107L25.3522 118.886ZM24.14 117.162H25.01L24.5692 117.605L24.14 117.162ZM24.3285 119.914L23.56 120.69L22.7857 119.914L23.56 119.137L24.3285 119.914ZM21.7649 120.929L22.5363 120.156L23.3077 120.929L22.5363 121.708L21.7649 120.929ZM22.2869 121.959L21.5126 122.735L20.7441 121.959L21.5155 121.183L22.2869 121.959ZM23.56 121.183L24.3285 121.959L23.56 122.735L22.7857 121.959L23.56 121.183ZM22.5363 119.651L21.7649 118.886L22.5363 118.107L23.3077 118.886L22.5363 119.651ZM22.2869 119.902L21.5155 120.678L20.7441 119.902L21.5155 119.126L22.2869 119.902ZM20.4918 119.651L19.7204 118.886L20.4918 118.107L21.2632 118.886L20.4918 119.651ZM20.4918 120.156L21.2632 120.929L20.4918 121.708L19.7204 120.929L20.4918 120.156ZM21.2632 122.989L20.4918 123.763L19.7204 122.992L20.4918 122.213L21.2632 122.989ZM21.5126 123.237L22.2869 124.017L21.5155 124.793L20.7441 124.017L21.5126 123.237ZM21.7649 122.989L22.5363 122.21L23.3077 122.989L22.5363 123.763L21.7649 122.989ZM23.56 123.237L24.3285 124.017L23.56 124.793L22.7857 124.017L23.56 123.237ZM24.5808 124.268L25.3522 125.044L24.8534 125.549H24.3082L23.8094 125.044L24.5808 124.268ZM23.8094 122.989L24.5808 122.21L25.3522 122.989L24.5808 123.763L23.8094 122.989ZM23.8094 120.929L24.5808 120.156L25.3522 120.929L24.5808 121.708L23.8094 120.929ZM24.3285 117.845L23.56 118.624L22.7857 117.845L23.4904 117.153H23.6528L24.3285 117.845ZM22.5363 117.594L22.0955 117.15H22.9655L22.5363 117.594ZM22.2869 117.845L21.5155 118.624L20.7441 117.845L21.4343 117.15H21.5967L22.2869 117.845ZM20.9326 117.15L20.4918 117.594L20.051 117.15H20.9326ZM19.5522 117.15L20.2424 117.845L19.471 118.624L18.7982 117.944V117.76L19.4043 117.15H19.5522ZM18.891 117.15L18.746 117.293V117.15H18.891ZM18.8417 118.492L19.2216 118.886L18.8997 119.21L18.8417 118.492ZM19.0534 121.098L19.0244 120.731L19.2216 120.929L19.0534 121.098V121.098ZM19.0911 121.565L19.471 121.183L20.2424 121.959L19.471 122.735L19.1578 122.423L19.0911 121.565ZM19.2042 123.004V122.972L19.2216 122.992L19.2042 123.007V123.004ZM19.3405 124.659L19.2419 123.468L19.471 123.237L20.2424 124.017L19.471 124.793L19.3405 124.659V124.659ZM19.4101 125.534L19.3956 125.356L19.471 125.28L19.7204 125.534H19.4101ZM19.7204 125.047L20.4918 124.27L21.2632 125.047L20.7644 125.552H20.2192L19.7204 125.047ZM21.2632 125.552L21.5155 125.298L21.7678 125.552H21.2632ZM22.2637 125.552L21.7649 125.047L22.5363 124.27L23.3077 125.047L22.8089 125.552H22.2637ZM23.3077 125.552L23.56 125.298L23.8094 125.552H23.3077ZM25.6625 125.552H25.3522L25.6016 125.298L25.677 125.374L25.6625 125.552ZM25.735 124.676L25.6016 124.81L24.8302 124.034L25.6016 123.255L25.8307 123.485L25.735 124.676ZM25.8713 122.986V123.021L25.8539 123.007L25.8742 122.986H25.8713ZM25.9148 122.441L25.6016 122.753L24.8302 121.977L25.6016 121.201L25.9844 121.583L25.9148 122.441ZM26.0221 121.119L25.851 120.947L26.0511 120.748L26.0221 121.119ZM26.2309 118.51L26.1758 119.216L25.851 118.886L26.2309 118.504V118.51Z" fill="#407BFF"/>
<g opacity="0.6">
<path opacity="0.6" d="M25.8732 116.796H18.3506L18.4115 117.56L18.455 118.106L18.571 119.527L18.6377 120.344L18.7247 121.433L18.7595 121.897V122.037L18.803 122.586L18.8639 123.336L18.8987 123.8L18.9393 124.275L18.9828 124.821L19.0176 125.235L19.0524 125.702L19.0698 125.907H25.9892V125.702L26.0269 125.238L26.0617 124.821L26.1052 124.272L26.1429 123.8L26.1806 123.336L26.2415 122.583L26.285 122.037V121.897L26.3198 121.433L26.4097 120.344L26.4735 119.53L26.5866 118.106L26.633 117.56L26.6939 116.796H25.8732ZM26.3256 117.298L26.1806 117.152H26.3372L26.3256 117.298ZM26.2879 117.762L26.2734 117.946L25.6006 118.626L24.8292 117.846L25.5194 117.152H25.6818L26.2879 117.762ZM26.0936 120.184L25.6006 120.68L24.8292 119.904L25.6006 119.128L26.1342 119.665L26.0936 120.184ZM18.9364 119.665L19.47 119.128L20.2414 119.904L19.47 120.68L18.977 120.184L18.9364 119.665ZM25.3512 118.885L24.5798 119.662L23.8084 118.885L24.5798 118.106L25.3512 118.885ZM24.139 117.161H25.009L24.5682 117.604L24.139 117.161ZM24.3275 119.913L23.559 120.689L22.7847 119.913L23.559 119.136L24.3275 119.913ZM21.7639 120.928L22.5353 120.155L23.3067 120.928L22.5353 121.707L21.7639 120.928ZM22.2859 121.958L21.5116 122.735L20.7431 121.958L21.5145 121.182L22.2859 121.958ZM23.559 121.182L24.3275 121.958L23.559 122.735L22.7847 121.958L23.559 121.182ZM22.5353 119.65L21.7639 118.885L22.5353 118.106L23.3067 118.885L22.5353 119.65ZM22.2859 119.901L21.5145 120.677L20.7431 119.901L21.5145 119.125L22.2859 119.901ZM20.4908 119.65L19.7194 118.885L20.4908 118.106L21.2622 118.885L20.4908 119.65ZM20.4908 120.155L21.2622 120.928L20.4908 121.707L19.7194 120.928L20.4908 120.155ZM21.2622 122.988L20.4908 123.762L19.7194 122.991L20.4908 122.212L21.2622 122.988ZM21.5116 123.236L22.2859 124.016L21.5145 124.792L20.7431 124.016L21.5116 123.236ZM21.7639 122.988L22.5353 122.209L23.3067 122.988L22.5353 123.762L21.7639 122.988ZM23.559 123.236L24.3275 124.016L23.559 124.792L22.7847 124.016L23.559 123.236ZM24.5798 124.267L25.3512 125.043L24.8524 125.548H24.3072L23.8084 125.043L24.5798 124.267ZM23.8084 122.988L24.5798 122.209L25.3512 122.988L24.5798 123.762L23.8084 122.988ZM23.8084 120.928L24.5798 120.155L25.3512 120.928L24.5798 121.707L23.8084 120.928ZM24.3275 117.844L23.559 118.623L22.7847 117.844L23.4894 117.152H23.6518L24.3275 117.844ZM22.5353 117.593L22.0945 117.149H22.9645L22.5353 117.593ZM22.2859 117.844L21.5145 118.623L20.7431 117.844L21.4333 117.149H21.5957L22.2859 117.844ZM20.9316 117.149L20.4908 117.593L20.05 117.149H20.9316ZM19.5512 117.149L20.2414 117.844L19.47 118.623L18.7972 117.943V117.759L19.4033 117.149H19.5512ZM18.89 117.149L18.745 117.292V117.149H18.89ZM18.8407 118.491L19.2206 118.885L18.8987 119.209L18.8407 118.491ZM19.0524 121.097L19.0234 120.73L19.2206 120.928L19.0524 121.097V121.097ZM19.0901 121.564L19.47 121.182L20.2414 121.958L19.47 122.735L19.1568 122.422L19.0901 121.564ZM19.2032 123.003V122.971L19.2206 122.991L19.2032 123.006V123.003ZM19.3395 124.658L19.2409 123.467L19.47 123.236L20.2414 124.016L19.47 124.792L19.3395 124.658V124.658ZM19.4091 125.533L19.3946 125.355L19.47 125.279L19.7194 125.533H19.4091ZM19.7194 125.046L20.4908 124.27L21.2622 125.046L20.7634 125.551H20.2182L19.7194 125.046ZM21.2622 125.551L21.5145 125.297L21.7668 125.551H21.2622ZM22.2627 125.551L21.7639 125.046L22.5353 124.27L23.3067 125.046L22.8079 125.551H22.2627ZM23.3067 125.551L23.559 125.297L23.8084 125.551H23.3067ZM25.6615 125.551H25.3512L25.6006 125.297L25.676 125.373L25.6615 125.551ZM25.734 124.675L25.6006 124.809L24.8292 124.033L25.6006 123.254L25.8297 123.485L25.734 124.675ZM25.8703 122.985V123.021L25.8529 123.006L25.8732 122.985H25.8703ZM25.9138 122.44L25.6006 122.752L24.8292 121.976L25.6006 121.2L25.9834 121.582L25.9138 122.44ZM26.0211 121.118L25.85 120.946L26.0501 120.747L26.0211 121.118ZM26.2299 118.509L26.1748 119.215L25.85 118.885L26.2299 118.503V118.509Z" fill="white"/>
</g>
<path d="M18.3446 117.471H26.7256C26.9882 117.471 27.2012 117.256 27.2012 116.992V116.96C27.2012 116.696 26.9882 116.481 26.7256 116.481H18.3446C18.0819 116.481 17.869 116.696 17.869 116.96V116.992C17.869 117.256 18.0819 117.471 18.3446 117.471Z" fill="#407BFF"/>
<path d="M26.052 125.373H19.0166C18.7539 125.373 18.541 125.587 18.541 125.852V125.884C18.541 126.148 18.7539 126.362 19.0166 126.362H26.052C26.3147 126.362 26.5276 126.148 26.5276 125.884V125.852C26.5276 125.587 26.3147 125.373 26.052 125.373Z" fill="#407BFF"/>
<path d="M70.0425 45.3017L78.5979 43.8116C79.1803 43.7102 79.5706 43.1529 79.4698 42.5669L77.989 33.9577C77.8882 33.3717 77.3344 32.9789 76.7521 33.0803L68.1967 34.5705C67.6143 34.6719 67.224 35.2292 67.3248 35.8152L68.8056 44.4244C68.9064 45.0104 69.4602 45.4032 70.0425 45.3017Z" fill="#407BFF"/>
<path d="M73.0371 43.9281C73.0371 43.9281 74.9888 46.9018 78.2948 47.3629C78.2948 47.3629 76.3895 46.6596 75.9458 43.2773L73.0371 43.9281Z" fill="#407BFF"/>
<path d="M75.86 38.3714L74.4796 38.5377C74.4796 38.5377 74.0272 37.6097 73.7401 35.4619C73.5002 35.4651 73.262 35.5025 73.0325 35.5728C72.8092 35.672 73.0557 38.0767 73.0557 38.0767C73.0557 38.0767 70.5559 38.2518 70.4457 38.3685C70.3703 38.4473 70.3993 38.8179 70.4457 39.0805C70.4517 39.1559 70.4842 39.2267 70.5373 39.2802C70.5905 39.3337 70.6608 39.3663 70.7357 39.3724H70.8256L71.2693 41.7361C71.2837 41.8255 71.3318 41.9058 71.4037 41.9602C71.4757 42.0146 71.5657 42.0389 71.655 42.028L73.975 41.7361C74.2053 41.7034 74.4206 41.6017 74.5927 41.4443L74.8189 41.2371L76.2689 41.1437L75.86 38.3714Z" fill="#407BFF"/>
<path opacity="0.7" d="M75.86 38.3714L74.4796 38.5377C74.4796 38.5377 74.0272 37.6097 73.7401 35.4619C73.5002 35.4651 73.262 35.5025 73.0325 35.5728C72.8092 35.672 73.0557 38.0767 73.0557 38.0767C73.0557 38.0767 70.5559 38.2518 70.4457 38.3685C70.3703 38.4473 70.3993 38.8179 70.4457 39.0805C70.4517 39.1559 70.4842 39.2267 70.5373 39.2802C70.5905 39.3337 70.6608 39.3663 70.7357 39.3724H70.8256L71.2693 41.7361C71.2837 41.8255 71.3318 41.9058 71.4037 41.9602C71.4757 42.0146 71.5657 42.0389 71.655 42.028L73.975 41.7361C74.2053 41.7034 74.4206 41.6017 74.5927 41.4443L74.8189 41.2371L76.2689 41.1437L75.86 38.3714Z" fill="white"/>
<path d="M80.7778 55.4748C79.5134 55.4252 74.5892 63.4971 74.5892 63.4971L71.2426 62.8551L70.5234 64.5768C70.5234 64.5768 73.5423 66.0593 74.7545 66.1906C75.9667 66.3219 80.6212 59.8113 80.6212 59.8113L80.7778 55.4748Z" fill="#407BFF"/>
<path opacity="0.2" d="M80.777 55.4729L80.6204 59.8123C80.6204 59.8123 80.5073 59.9699 80.313 60.2325C79.9592 60.7199 79.3241 61.5749 78.602 62.4883C77.1897 64.2684 75.441 66.282 74.7653 66.1945C73.5502 66.0632 70.5342 64.5865 70.5342 64.5865L71.2534 62.8648L74.5971 63.5009C74.5971 63.5009 79.5126 55.4262 80.777 55.4729Z" fill="white"/>
<path opacity="0.2" d="M80.3018 60.229C79.948 60.7164 79.3129 61.5714 78.5908 62.4848C78.6169 60.7631 80.1133 58.6211 80.1133 58.6211C80.1133 58.6211 80.2206 59.3244 80.3018 60.229Z" fill="black"/>
<path d="M90.3823 126.118H93.2098C93.2563 126.118 93.3014 126.134 93.3377 126.163C93.374 126.192 93.3995 126.233 93.4099 126.278L93.8681 128.365C93.8871 128.454 93.87 128.548 93.8206 128.625C93.7711 128.702 93.6933 128.757 93.6042 128.776H93.5289C92.6125 128.762 91.9454 128.706 90.797 128.706C90.0894 128.706 87.9521 128.779 86.9748 128.779C85.9975 128.779 85.8699 127.807 86.2701 127.717C88.0652 127.326 89.4166 126.78 89.9908 126.258C90.0987 126.162 90.2388 126.112 90.3823 126.118V126.118Z" fill="#263238"/>
<path d="M78.3822 126.041H81.201C81.2471 126.042 81.2918 126.058 81.3276 126.087C81.3635 126.116 81.3884 126.157 81.3982 126.202L81.8593 128.291C81.8774 128.381 81.8594 128.474 81.8095 128.551C81.7595 128.627 81.6815 128.681 81.5925 128.7C81.5675 128.703 81.5422 128.703 81.5171 128.7C80.6036 128.682 79.9366 128.627 78.7853 128.627C78.0778 128.627 75.9434 128.703 74.9661 128.703C73.9888 128.703 73.8612 127.731 74.2614 127.641C76.0565 127.247 77.4049 126.701 77.982 126.182C78.0931 126.086 78.2361 126.036 78.3822 126.041Z" fill="#263238"/>
<path d="M91.8823 73.3438H79.5225C78.3451 79.8018 74.6679 106.028 77.3069 126.389H81.4916C81.4916 126.389 81.103 95.4552 84.7976 85.469C85.2239 90.8182 89.5449 126.365 89.5449 126.365H93.805C93.805 126.365 93.167 112.994 92.529 100.361C92.1288 92.4086 91.8997 74.975 91.8823 73.3438Z" fill="#263238"/>
<path opacity="0.2" d="M84.798 85.469C84.1902 87.221 83.7284 89.021 83.4176 90.8502C83.0725 86.0906 84.4558 81.0449 84.4558 81.0449L84.798 85.469Z" fill="black"/>
<path d="M79.4173 73.4922H91.8583V74.9834L79.2578 74.8287L79.4173 73.4922Z" fill="black"/>
<path d="M87.8597 72.8213H87.416V75.4681H87.8597V72.8213Z" fill="#263238"/>
<path d="M81.5638 72.8213H81.1201V75.4681H81.5638V72.8213Z" fill="#263238"/>
<path d="M85.0897 73.2305H82.7871V74.8997H85.0897V73.2305Z" fill="white"/>
<path d="M91.8991 73.7319C92.2268 66.6085 94.309 56.5143 94.309 56.5143C88.5322 55.1135 80.7776 55.4637 80.7776 55.4637C79.2667 60.9033 79.2928 69.6814 79.4233 73.7202L91.8991 73.7319Z" fill="#407BFF"/>
<path opacity="0.2" d="M94.3092 56.5232C94.3092 56.5232 94.0772 57.6525 93.7553 59.4181C93.6016 60.2614 93.4247 61.2507 93.2478 62.3363C93.1434 62.9696 93.0361 63.632 92.9346 64.3149C92.8331 64.9978 92.7287 65.666 92.6446 66.3577C92.3024 68.8323 92.0153 71.4383 91.908 73.735H79.438C79.3075 69.6961 79.2814 60.9181 80.7923 55.4755C80.7778 55.4726 88.5353 55.1224 94.3092 56.5232Z" fill="white"/>
<path opacity="0.2" d="M93.7556 59.4178C93.6019 60.2612 93.425 61.2505 93.2481 62.336C93.1437 62.9693 93.0364 63.6317 92.9349 64.3146C92.0185 61.8954 93.5787 58.627 93.5787 58.627L93.7556 59.4178Z" fill="black"/>
<path d="M84.8843 56.4353L85.1946 57.9761C85.1946 57.9761 83.4111 65.4672 83.0283 69.3573L83.6779 70.0109L84.7016 69.3573C84.7016 69.3573 84.7915 61.4459 85.6963 58.122L87.3145 56.7884L86.0385 56.3711L84.8843 56.4353Z" fill="#263238"/>
<path d="M89.7266 55.7385C88.6594 56.7161 86.0378 56.3542 86.0378 56.3542C86.0378 56.3542 84.4051 55.9048 84.7473 55.3912C85.7101 55.2307 86.177 54.7784 86.3684 54.2006C86.4751 53.8424 86.5086 53.4661 86.467 53.0945C86.4516 52.887 86.4245 52.6804 86.3858 52.4759L89.6251 50.0625C89.1988 51.6559 88.6797 54.5858 89.7266 55.7385Z" fill="#EEC1BB"/>
<path opacity="0.2" d="M88.8776 51.5977C88.7471 53.5529 87.1376 54.0898 86.3691 54.2007C86.4758 53.8425 86.5093 53.4663 86.4677 53.0947L88.8776 51.5977Z" fill="black"/>
<path d="M89.2516 54.498L86.1544 55.9046L85.9746 54.7782L84.8349 55.1809C84.6368 55.2508 84.468 55.3859 84.3559 55.5644C84.2438 55.743 84.1949 55.9544 84.2172 56.1644L84.3448 57.4017L85.9137 56.5262L86.6967 57.6381L90.4145 55.8521L89.2516 54.498Z" fill="#407BFF"/>
<path opacity="0.3" d="M89.2516 54.498L86.1544 55.9046L85.9746 54.7782L84.8349 55.1809C84.6368 55.2508 84.468 55.3859 84.3559 55.5644C84.2438 55.743 84.1949 55.9544 84.2172 56.1644L84.3448 57.4017L85.9137 56.5262L86.6967 57.6381L90.4145 55.8521L89.2516 54.498Z" fill="white"/>
<path d="M82.9874 45.536C82.9874 45.536 82.5032 48.6731 84.1474 49.8871C85.7917 51.1011 85.8178 45.2559 85.8178 45.2559L82.9874 45.536Z" fill="#263238"/>
<path d="M88.9535 52.3943C88.6057 52.9108 88.0987 53.2978 87.5106 53.4955C86.9226 53.6933 86.2863 53.6909 85.6997 53.4887C84.9358 53.2439 84.2936 52.7146 83.9046 52.0091C83.8504 51.9144 83.8011 51.817 83.7567 51.7173C82.9476 49.7971 82.6982 46.4411 84.7166 45.1892C85.4063 44.7559 86.2387 44.6158 87.0309 44.7997C87.8231 44.9835 88.5105 45.4763 88.9419 46.1697C89.1993 46.58 89.3554 47.0462 89.3972 47.5296C89.6379 49.765 89.8844 51.0724 88.9535 52.3943Z" fill="#EEC1BB"/>
<path d="M86.1465 48.708C86.1871 48.886 86.1059 49.0524 85.987 49.0728C85.8681 49.0932 85.7492 48.959 85.7173 48.781C85.6854 48.603 85.7608 48.4396 85.8768 48.4191C85.9928 48.3987 86.1146 48.5271 86.1465 48.708Z" fill="#263238"/>
<path d="M84.1008 49.0521C84.1414 49.2301 84.0574 49.3965 83.9413 49.414C83.8253 49.4315 83.7035 49.3031 83.6745 49.1222C83.6455 48.9412 83.7151 48.7778 83.8311 48.7603C83.9471 48.7428 84.0805 48.8799 84.1008 49.0521Z" fill="#263238"/>
<path d="M84.7712 49.0322C84.6492 49.6228 84.4462 50.1935 84.168 50.7277C84.3067 50.7954 84.4585 50.832 84.6127 50.8351C84.7668 50.8381 84.9199 50.8074 85.0612 50.7452L84.7712 49.0322Z" fill="#D4827D"/>
<path d="M83.2085 48.3061C83.2271 48.3123 83.247 48.3137 83.2662 48.3101C83.2855 48.3066 83.3036 48.2981 83.3187 48.2856C83.4176 48.1936 83.5364 48.1259 83.6658 48.0879C83.7951 48.0499 83.9315 48.0427 84.064 48.0668C84.0774 48.0708 84.0914 48.072 84.1052 48.0705C84.119 48.069 84.1324 48.0647 84.1445 48.0579C84.1567 48.0511 84.1674 48.042 84.176 48.0309C84.1846 48.0199 84.1909 48.0073 84.1945 47.9938C84.2017 47.966 84.1979 47.9364 84.1838 47.9113C84.1698 47.8863 84.1466 47.8677 84.1191 47.8596V47.8596C83.9531 47.8246 83.7811 47.8302 83.6176 47.8759C83.4541 47.9216 83.3039 48.0061 83.1795 48.1222C83.1576 48.1404 83.1438 48.1666 83.1411 48.1951C83.1384 48.2235 83.147 48.2519 83.165 48.274V48.274C83.1774 48.2874 83.1921 48.2983 83.2085 48.3061Z" fill="#263238"/>
<path d="M86.421 47.8203C86.441 47.8172 86.4594 47.8078 86.4735 47.7933C86.4876 47.7789 86.4967 47.7602 86.4993 47.74C86.5019 47.7199 86.4979 47.6995 86.488 47.6819C86.4781 47.6642 86.4627 47.6503 86.4442 47.6422V47.6422C86.3006 47.5501 86.137 47.4943 85.9673 47.4795C85.7977 47.4648 85.627 47.4916 85.4698 47.5576C85.4571 47.5635 85.4456 47.572 85.4362 47.5825C85.4268 47.5929 85.4195 47.6052 85.4149 47.6186C85.4103 47.6319 85.4085 47.6461 85.4094 47.6602C85.4104 47.6743 85.4141 47.688 85.4205 47.7006V47.7006C85.433 47.726 85.4549 47.7454 85.4815 47.7547C85.5081 47.7639 85.5372 47.7623 85.5626 47.7502V47.7502C85.6885 47.7024 85.8237 47.6847 85.9575 47.6984C86.0914 47.712 86.2203 47.7568 86.334 47.829C86.3482 47.8344 86.3635 47.8364 86.3785 47.8349C86.3936 47.8334 86.4082 47.8283 86.421 47.8203V47.8203Z" fill="#263238"/>
<path d="M87.3115 45.0195V46.0205C87.485 46.0807 87.6301 46.2036 87.7185 46.3654C87.8069 46.5272 87.8324 46.7163 87.79 46.8959C87.5696 47.7714 88.1902 48.9942 88.8862 49.4319C88.8862 49.4319 88.863 49.07 89.1762 49.1196C89.4894 49.1693 89.6286 51.0515 89.1443 52.0175C89.1443 52.0175 89.9389 51.1011 90.2086 49.0759C90.458 47.1994 90.3362 45.6761 89.8838 45.0166L87.3115 45.0195Z" fill="#263238"/>
<path d="M90.6669 49.1814C90.5054 49.7262 90.1363 50.1846 89.6403 50.4567C88.9791 50.8098 88.4803 50.2553 88.5354 49.5433C88.5818 48.91 88.9762 47.9441 89.6954 47.8916C90.4146 47.839 90.8554 48.5102 90.6669 49.1814Z" fill="#EEC1BB"/>
<path d="M85.2959 51.2931C85.4514 51.533 85.59 51.7836 85.7106 52.0431L85.8556 51.9993C86.5081 51.8067 86.7459 51.5003 86.8155 51.2201C86.848 51.083 86.848 50.94 86.8155 50.8028C86.7976 50.7254 86.7693 50.6508 86.7314 50.5811C86.3808 50.8798 85.9703 51.0988 85.5279 51.2231C85.3829 51.2698 85.2959 51.2931 85.2959 51.2931Z" fill="#263238"/>
<path d="M85.5166 51.2231L85.6442 51.4419C86.259 51.2581 86.6679 51.048 86.8042 50.8028C86.7863 50.7254 86.758 50.6508 86.7201 50.5811C86.3695 50.8798 85.959 51.0988 85.5166 51.2231V51.2231Z" fill="white"/>
<path d="M85.8555 51.9999C86.508 51.8073 86.7458 51.5009 86.8154 51.2207C86.5683 51.2997 86.3368 51.4211 86.131 51.5796C85.9981 51.6876 85.9018 51.8344 85.8555 51.9999V51.9999Z" fill="#DE5753"/>
<path d="M89.7273 45.4922C89.7273 45.4922 90.7974 44.179 88.2309 43.3736C85.6644 42.5682 81.9089 44.9669 82.6716 45.9154C83.4343 46.8638 86.0646 46.4669 86.0646 46.4669C85.697 46.4223 85.3494 46.2747 85.0612 46.0408C85.0612 46.0408 88.866 46.2976 89.7273 45.4922Z" fill="#263238"/>
<path d="M94.3094 56.5264C95.9363 57.0808 97.0499 67.2596 97.0296 68.1439C97.0093 69.0281 94.5182 69.4104 94.3094 67.5602C94.1006 65.7101 93.248 61.7763 93.248 61.7763C93.248 61.7763 93.0218 59.9962 93.248 58.9164C93.4742 57.8367 94.3094 56.5264 94.3094 56.5264Z" fill="#407BFF"/>
<path opacity="0.2" d="M94.3094 56.5264C95.9363 57.0808 97.0499 67.2596 97.0296 68.1439C97.0093 69.0281 94.5182 69.4104 94.3094 67.5602C94.1006 65.7101 93.248 61.7763 93.248 61.7763C93.248 61.7763 93.0218 59.9962 93.248 58.9164C93.4742 57.8367 94.3094 56.5264 94.3094 56.5264Z" fill="white"/>
<path d="M107.099 67.8859L50.3301 61.7002L46.054 101.439L102.823 107.625L107.099 67.8859Z" fill="#407BFF"/>
<path opacity="0.6" d="M107.099 67.8859L50.3301 61.7002L46.054 101.439L102.823 107.625L107.099 67.8859Z" fill="white"/>
<path d="M101.66 106.271L47.4912 100.373L51.5048 63.04L105.674 68.9378L101.66 106.271ZM47.8131 100.113L101.402 105.95L105.355 69.1975L51.7629 63.361L47.8131 100.113Z" fill="#407BFF"/>
<path d="M102.266 106.994L99.1075 106.649L99.2293 105.526L50.025 100.168L49.9032 101.291L46.7451 100.95L47.0873 97.772L48.2328 97.8975L51.7128 65.6189L50.5528 65.4934L50.895 62.3154L54.0531 62.6598L53.9342 63.7833L103.139 69.1412L103.257 68.0177L106.43 68.3591L106.088 71.5371L104.942 71.4145L101.462 103.69L102.622 103.816L102.266 106.994ZM99.4265 106.393L102.008 106.684L102.298 104.087L101.138 103.962L104.67 71.1022L105.83 71.2277L106.12 68.6305L103.539 68.3387L103.417 69.4622L53.6152 64.043L53.737 62.9166L51.156 62.6248L50.866 65.222L52.0115 65.3475L48.4793 98.2069L47.3193 98.0814L47.0293 100.679L49.6103 100.97L49.7321 99.8469L99.5135 105.266L99.4265 106.393Z" fill="#407BFF"/>
<path d="M52.2899 64.0603L52.9482 64.1332L52.8757 64.7957L52.2174 64.7256L52.2899 64.0603ZM52.0318 63.7393L51.9999 64.0311L51.9303 64.6964L51.8984 64.9883L52.1884 65.0204L52.8496 65.0933L53.1396 65.1225L53.1715 64.8307L53.2411 64.1682L53.273 63.8764L52.983 63.8443L52.3218 63.7743L52.0318 63.7422V63.7393Z" fill="#407BFF"/>
<path d="M48.5468 98.8815L49.2051 98.9516L49.1326 99.614L48.4743 99.544L48.5468 98.8815ZM48.2887 98.5576L48.2568 98.8494L48.1872 99.5119L48.1553 99.8037L48.4453 99.8329L49.1065 99.9058L49.3965 99.938L49.4284 99.6461L49.498 98.9837L49.5299 98.6919L49.2399 98.6627L48.5787 98.5897L48.2887 98.5576Z" fill="#407BFF"/>
<path d="M104.032 69.696L104.69 69.766L104.621 70.4314L103.96 70.3584L104.032 69.696ZM103.774 69.3721L103.742 69.6639L103.673 70.3263L103.641 70.6181L103.931 70.6473L104.592 70.7203L104.882 70.7524L104.914 70.4606L104.986 69.7981L105.015 69.5063L104.725 69.4742L104.067 69.4012L103.777 69.3691L103.774 69.3721Z" fill="#407BFF"/>
<path d="M100.289 104.513L100.947 104.586L100.878 105.249L100.216 105.176L100.289 104.513ZM100.031 104.192L99.999 104.484L99.9294 105.15L99.8975 105.441L100.187 105.473L100.846 105.544L101.136 105.576L101.168 105.284L101.24 104.618L101.269 104.327L100.979 104.295L100.321 104.224L100.031 104.192Z" fill="#407BFF"/>
<path d="M62.9023 70.2188C62.9461 69.9364 63.0712 69.6732 63.2623 69.4618C63.4533 69.2504 63.7019 69.1001 63.9771 69.0295C64.2522 68.959 64.542 68.9713 64.8102 69.065C65.0785 69.1586 65.3136 69.3295 65.4862 69.5563L65.1324 69.8248C65.0539 69.7144 64.9526 69.6224 64.8355 69.5549C64.7184 69.4874 64.5882 69.4461 64.4538 69.4338C64.3291 69.4169 64.2023 69.4253 64.0809 69.4585C63.9595 69.4917 63.8459 69.549 63.7468 69.6271C63.6478 69.7052 63.5653 69.8024 63.5042 69.9131C63.4431 70.0238 63.4046 70.1457 63.391 70.2715C63.3775 70.3974 63.3891 70.5248 63.4252 70.646C63.4614 70.7673 63.5213 70.8801 63.6014 70.9777C63.6815 71.0754 63.7803 71.1558 63.8918 71.2144C64.0034 71.273 64.1254 71.3086 64.2508 71.319C64.3853 71.3355 64.5218 71.3227 64.6509 71.2814C64.78 71.2401 64.8988 71.1713 64.999 71.0797L65.289 71.4211C65.0722 71.6056 64.8063 71.7221 64.5244 71.7559C64.2424 71.7898 63.9567 71.7396 63.7029 71.6115C63.449 71.4835 63.2381 71.2832 63.0963 71.0356C62.9545 70.7881 62.8881 70.504 62.9052 70.2188H62.9023Z" fill="#407BFF"/>
<path d="M67.7613 71.6807L67.7149 72.1009L65.7168 71.882L66.0068 69.1973L67.9527 69.4103L67.9092 69.8276L66.4592 69.67L66.3838 70.3675L67.6743 70.5076L67.6279 70.919L66.3403 70.7789L66.262 71.5173L67.7613 71.6807Z" fill="#407BFF"/>
<path d="M70.0124 72.3481L69.5542 71.5048H69.4498L68.8466 71.4406L68.7625 72.2227L68.2695 72.1672L68.5595 69.4854L69.6557 69.605C70.3575 69.6809 70.7548 70.0865 70.691 70.6818C70.6773 70.8662 70.6059 71.0414 70.4871 71.1824C70.3684 71.3234 70.2083 71.423 70.0298 71.4668L70.5489 72.4153L70.0124 72.3481ZM69.5861 70.0136L69.0061 69.9523L68.893 71.0203L69.473 71.0845C69.908 71.1312 70.1545 70.9561 70.1893 70.6176C70.2241 70.2791 70.0211 70.0602 69.6006 70.0136H69.5861Z" fill="#407BFF"/>
<path d="M71.7986 70.2568L70.9141 70.1604L70.9605 69.7373L73.2225 69.9854L73.179 70.4056L72.2945 70.3093L72.0509 72.5709L71.555 72.5184L71.7986 70.2568Z" fill="#407BFF"/>
<path d="M73.5966 70.0264L74.0925 70.0789L73.8025 72.7637L73.3066 72.7082L73.5966 70.0264Z" fill="#407BFF"/>
<path d="M75.262 70.63L75.175 71.4442L76.4626 71.5842L76.4162 72.0074L75.1286 71.8673L75.0184 72.8945L74.5225 72.842L74.8125 70.1572L76.7584 70.3703L76.7149 70.7876L75.262 70.63Z" fill="#407BFF"/>
<path d="M77.2392 70.4199L77.7322 70.4754L77.4422 73.1601L76.9463 73.1047L77.2392 70.4199Z" fill="#407BFF"/>
<path d="M78.1172 71.8766C78.1354 71.6896 78.1915 71.5084 78.2819 71.3441C78.3723 71.1797 78.4952 71.0357 78.6429 70.9209C78.7907 70.8061 78.9602 70.7229 79.1411 70.6765C79.322 70.6301 79.5104 70.6214 79.6948 70.6509C79.8934 70.6645 80.0866 70.7219 80.2605 70.8193C80.4345 70.9167 80.5849 71.0515 80.7011 71.2142L80.3502 71.4826C80.2716 71.372 80.1704 71.2796 80.0534 71.2116C79.9363 71.1436 79.8061 71.1017 79.6716 71.0887C79.5154 71.0733 79.3578 71.0975 79.2132 71.159C79.0686 71.2205 78.9416 71.3173 78.8436 71.4407C78.7457 71.5642 78.6799 71.7102 78.6523 71.8657C78.6247 72.0212 78.6361 72.1812 78.6855 72.3311C78.7349 72.481 78.8207 72.6162 78.9352 72.7243C79.0496 72.8323 79.1891 72.9099 79.3409 72.95C79.4928 72.9901 79.6521 72.9914 79.8046 72.9538C79.957 72.9161 80.0977 72.8408 80.2139 72.7346L80.5039 73.076C80.2873 73.2603 80.0217 73.3767 79.74 73.4106C79.4583 73.4445 79.1729 73.3946 78.9192 73.2669C78.6654 73.1392 78.4545 72.9395 78.3124 72.6923C78.1704 72.4452 78.1035 72.1616 78.1201 71.8766H78.1172Z" fill="#407BFF"/>
<path d="M82.674 73.0989L81.34 72.9559L81.0094 73.5396L80.499 73.4841L81.9896 70.9307L82.4768 70.9832L83.3903 73.7964L82.8741 73.7409L82.674 73.0989ZM82.5522 72.6904L82.1752 71.4618L81.5488 72.5824L82.5522 72.6904Z" fill="#407BFF"/>
<path d="M84.3904 71.6249L83.5059 71.5286L83.5494 71.1084L85.8143 71.3535L85.7679 71.7767L84.8834 71.6804L84.6427 73.942L84.1468 73.8866L84.3904 71.6249Z" fill="#407BFF"/>
<path d="M86.1767 71.3945L86.6726 71.45L86.3826 74.1318L85.8867 74.0793L86.1767 71.3945Z" fill="#407BFF"/>
<path d="M87.058 72.848C87.0755 72.5568 87.1792 72.2776 87.3559 72.0463C87.5326 71.8151 87.7741 71.6424 88.0493 71.5506C88.3245 71.4589 88.6207 71.4522 88.8996 71.5315C89.1786 71.6108 89.4275 71.7725 89.6143 71.9955C89.8011 72.2186 89.9171 72.4929 89.9475 72.7831C89.9778 73.0732 89.921 73.3658 89.7844 73.6231C89.6479 73.8804 89.4378 74.0906 89.1813 74.2266C88.9248 74.3625 88.6338 74.418 88.3456 74.3859C88.1587 74.3756 87.9758 74.3269 87.8083 74.2428C87.6408 74.1588 87.4921 74.0411 87.3715 73.897C87.2509 73.7529 87.1608 73.5855 87.1069 73.4051C87.053 73.2247 87.0364 73.0351 87.058 72.848V72.848ZM89.4302 73.1077C89.451 72.9212 89.4162 72.7326 89.3304 72.566C89.2445 72.3993 89.1115 72.262 88.9481 72.1715C88.7846 72.081 88.5982 72.0413 88.4123 72.0575C88.2265 72.0736 88.0496 72.1449 87.904 72.2624C87.7585 72.3798 87.6508 72.538 87.5947 72.717C87.5386 72.8961 87.5365 73.0878 87.5888 73.268C87.6411 73.4482 87.7453 73.6088 87.8883 73.7293C88.0312 73.8499 88.2066 73.925 88.392 73.9452C88.5154 73.9623 88.6409 73.9539 88.761 73.9206C88.881 73.8872 88.993 73.8296 89.0901 73.7512C89.1873 73.6728 89.2676 73.5753 89.326 73.4647C89.3845 73.3541 89.42 73.2326 89.4302 73.1077V73.1077Z" fill="#407BFF"/>
<path d="M92.9718 72.1328L92.6818 74.8176L92.2758 74.7738L90.9998 72.7952L90.8026 74.6133L90.3125 74.5607L90.6025 71.876L91.0114 71.9197L92.2874 73.8983L92.4817 72.0803L92.9718 72.1328Z" fill="#407BFF"/>
<path opacity="0.6" d="M90.2398 82.4894L63.7019 79.6004C63.4042 79.5679 63.1059 79.6557 62.8726 79.8445C62.6393 80.0333 62.4901 80.3077 62.4578 80.6072C62.4255 80.9067 62.5127 81.2069 62.7004 81.4416C62.888 81.6764 63.1606 81.8266 63.4583 81.8591L89.9962 84.7481C90.1435 84.7642 90.2926 84.751 90.4349 84.7091C90.5772 84.6672 90.7099 84.5975 90.8254 84.504C90.9409 84.4105 91.037 84.2951 91.1082 84.1642C91.1794 84.0334 91.2243 83.8897 91.2403 83.7414C91.2562 83.5931 91.2431 83.443 91.2014 83.2998C91.1598 83.1567 91.0906 83.0231 90.9977 82.9069C90.9048 82.7906 90.79 82.6939 90.66 82.6223C90.5299 82.5507 90.3871 82.5055 90.2398 82.4894V82.4894Z" fill="white"/>
<path d="M96.6916 88.3525H96.6742L56.167 83.9431C56.1286 83.9388 56.0934 83.9194 56.0692 83.889C56.045 83.8586 56.0338 83.8198 56.038 83.7811C56.0422 83.7424 56.0615 83.707 56.0917 83.6827C56.1219 83.6583 56.1605 83.647 56.1989 83.6513L96.7061 88.0636C96.7251 88.0654 96.7435 88.0711 96.7603 88.0802C96.7771 88.0893 96.7918 88.1017 96.8037 88.1167C96.8156 88.1316 96.8244 88.1489 96.8296 88.1673C96.8347 88.1858 96.8362 88.2051 96.8337 88.2241C96.8295 88.2592 96.8128 88.2916 96.7867 88.3152C96.7605 88.3388 96.7268 88.3521 96.6916 88.3525Z" fill="#407BFF"/>
<path d="M96.8222 87.1296H96.8048L59.4732 83.0645C59.4351 83.0601 59.4004 83.0407 59.3765 83.0107C59.3526 82.9806 59.3415 82.9423 59.3456 82.904C59.3473 82.8849 59.3529 82.8663 59.362 82.8495C59.371 82.8326 59.3834 82.8177 59.3983 82.8057C59.4131 82.7938 59.4303 82.7849 59.4486 82.7797C59.467 82.7746 59.4862 82.7731 59.5051 82.7756L96.8367 86.8378C96.8752 86.8397 96.9113 86.8569 96.9372 86.8856C96.963 86.9144 96.9764 86.9523 96.9745 86.991C96.9726 87.0297 96.9554 87.066 96.9269 87.092C96.8983 87.118 96.8607 87.1315 96.8222 87.1296V87.1296Z" fill="#407BFF"/>
<path d="M80.6813 87.9033L56.0313 85.2214C55.9928 85.2172 55.9576 85.1977 55.9334 85.1673C55.9092 85.1369 55.898 85.0981 55.9022 85.0594C55.9065 85.0207 55.9258 84.9853 55.956 84.961C55.9862 84.9366 56.0247 84.9253 56.0632 84.9296L80.6958 87.6114C80.7149 87.6124 80.7335 87.6171 80.7507 87.6253C80.768 87.6336 80.7834 87.6451 80.7962 87.6593C80.809 87.6736 80.8189 87.6902 80.8253 87.7083C80.8317 87.7263 80.8345 87.7455 80.8336 87.7647C80.8326 87.7838 80.8279 87.8026 80.8198 87.8199C80.8116 87.8373 80.8001 87.8528 80.786 87.8657C80.7718 87.8786 80.7553 87.8885 80.7374 87.895C80.7194 87.9014 80.7004 87.9042 80.6813 87.9033V87.9033Z" fill="#407BFF"/>
<path d="M97.7505 78.5063H97.7302L60.4014 74.4411C60.363 74.4369 60.3277 74.4174 60.3035 74.3871C60.2793 74.3567 60.2681 74.3179 60.2724 74.2792C60.2766 74.2405 60.2959 74.2051 60.3261 74.1807C60.3563 74.1564 60.3949 74.1451 60.4333 74.1493L97.765 78.2144C97.803 78.2188 97.8377 78.2382 97.8616 78.2682C97.8855 78.2983 97.8967 78.3366 97.8926 78.3749C97.8897 78.4108 97.8734 78.4442 97.8471 78.4686C97.8207 78.4929 97.7863 78.5064 97.7505 78.5063V78.5063Z" fill="#407BFF"/>
<path d="M97.6184 79.7295H97.6039L57.0967 75.3171C57.0583 75.3129 57.0231 75.2934 56.9989 75.263C56.9747 75.2327 56.9634 75.1939 56.9677 75.1552C56.9719 75.1165 56.9912 75.081 57.0214 75.0567C57.0516 75.0323 57.0902 75.021 57.1286 75.0253L97.6358 79.4347C97.6549 79.4359 97.6735 79.4408 97.6906 79.4492C97.7078 79.4576 97.7231 79.4693 97.7358 79.4837C97.7484 79.498 97.7582 79.5148 97.7644 79.5329C97.7706 79.5511 97.7733 79.5703 97.7721 79.5894C97.771 79.6086 97.7661 79.6273 97.7577 79.6446C97.7494 79.6618 97.7378 79.6773 97.7235 79.69C97.7092 79.7028 97.6926 79.7125 97.6746 79.7188C97.6565 79.7251 97.6374 79.7277 97.6184 79.7266V79.7295Z" fill="#407BFF"/>
<path d="M75.1117 79.863L56.8243 77.8728C56.7858 77.8685 56.7506 77.8491 56.7264 77.8187C56.7022 77.7883 56.691 77.7495 56.6952 77.7108C56.6994 77.6721 56.7188 77.6367 56.749 77.6123C56.7791 77.588 56.8177 77.5767 56.8562 77.581L75.1436 79.5741C75.1816 79.5785 75.2163 79.5979 75.2402 79.6279C75.2641 79.658 75.2752 79.6963 75.2712 79.7346C75.2661 79.7726 75.2467 79.8071 75.217 79.831C75.1873 79.8549 75.1496 79.8664 75.1117 79.863V79.863Z" fill="#407BFF"/>
<path d="M97.4817 81.0068H97.4672L56.96 76.5945C56.941 76.5924 56.9225 76.5865 56.9057 76.5772C56.8889 76.5679 56.8741 76.5554 56.8621 76.5404C56.8502 76.5253 56.8412 76.5081 56.8359 76.4896C56.8305 76.4711 56.8289 76.4517 56.831 76.4325C56.833 76.4133 56.8389 76.3948 56.8481 76.3779C56.8573 76.361 56.8698 76.3461 56.8847 76.334C56.8996 76.322 56.9168 76.313 56.9352 76.3076C56.9536 76.3022 56.9729 76.3005 56.9919 76.3026L97.4962 80.715C97.5347 80.717 97.5708 80.7342 97.5966 80.7629C97.6225 80.7916 97.6359 80.8295 97.634 80.8682C97.6321 80.9069 97.6149 80.9433 97.5864 80.9693C97.5578 80.9953 97.5202 81.0088 97.4817 81.0068V81.0068Z" fill="#407BFF"/>
<path d="M92.3699 101.849L90.6966 100.696L88.8174 101.461L89.467 95.4082L93.0224 95.7963L92.3699 101.849Z" fill="#407BFF"/>
<path opacity="0.2" d="M92.3699 101.849L90.6966 100.696L88.8174 101.461L89.467 95.4082L93.0224 95.7963L92.3699 101.849Z" fill="black"/>
<path d="M91.742 90.964L92.3278 90.6226L92.699 91.1946L93.3544 91.0107L93.5719 91.6556L94.2505 91.641L94.3027 92.3239L94.9639 92.4757L94.845 93.1498L95.4482 93.4649L95.1669 94.0865L95.6715 94.5447L95.2452 95.0758L95.6222 95.6449L95.0799 96.0534L95.3032 96.6984L94.6739 96.9581L94.7348 97.638L94.062 97.7343L93.9489 98.4084L93.2732 98.3296L92.9977 98.9542L92.3655 98.7119L91.945 99.2489L91.3882 98.8549L90.8488 99.2693L90.408 98.747L89.7845 99.0125L89.4858 98.3997L88.8159 98.4989L88.6796 97.8306L88.0039 97.7606L88.0387 97.0777L87.4007 96.8413L87.6008 96.1877L87.044 95.7995L87.4007 95.2159L86.9541 94.7023L87.4442 94.2266L87.1397 93.6138L87.7313 93.2782L87.5892 92.6099L88.2446 92.4319L88.2707 91.749L88.9522 91.7403L89.1465 91.0866L89.8077 91.2471L90.1557 90.6605L90.756 90.9844L91.2403 90.5029L91.742 90.964Z" fill="#407BFF"/>
<path opacity="0.2" d="M91.6562 91.7603L92.126 91.486L92.4218 91.9441L92.9438 91.7953L93.1178 92.3118L93.6601 92.3001L93.7007 92.8459L94.2314 92.9684L94.1357 93.5054L94.6171 93.7564L94.3909 94.2554L94.7969 94.6172L94.4547 95.0433L94.7563 95.4985L94.3213 95.8254L94.5011 96.339L93.9994 96.5462L94.0458 97.089L93.5093 97.1649L93.4194 97.7047L92.88 97.6405L92.6596 98.1425L92.155 97.9469L91.8186 98.3759L91.3749 98.0608L90.9457 98.3905L90.5919 97.9761L90.0931 98.1862L89.8582 97.696L89.3217 97.7777L89.2115 97.2436L88.6721 97.1853L88.7011 96.6425L88.1907 96.4528L88.3531 95.9304L87.9065 95.6211L88.1907 95.1571L87.834 94.7427L88.2255 94.3663L87.9848 93.876L88.4546 93.6075L88.3415 93.0735L88.8664 92.9305L88.8867 92.3877L89.429 92.3789L89.5856 91.8566L90.1134 91.985L90.3918 91.5181L90.8703 91.7749L91.256 91.3926L91.6562 91.7603Z" fill="white"/>
<path d="M91.3185 95.178L91.7245 95.2247L91.6955 95.4961L91.2576 95.4494L91.1387 95.9543L90.8661 95.9251L90.985 95.4202L90.4804 95.3648L90.3644 95.8697L90.0918 95.8405L90.2107 95.3356L89.8047 95.2918L89.8337 95.0175L90.2716 95.0642L90.3992 94.536L89.9932 94.4922L90.0222 94.2179L90.4601 94.2646L90.579 93.7598L90.8516 93.7889L90.7327 94.2967L91.2344 94.3493L91.3533 93.8444L91.6259 93.8736L91.507 94.3784L91.9101 94.4222L91.884 94.6965L91.4461 94.6498L91.3185 95.178ZM91.0459 95.1489L91.1706 94.6207L90.6689 94.5652L90.5413 95.0934L91.0459 95.1489Z" fill="#407BFF"/>
<path d="M92.8876 94.0133L92.6614 96.1203L92.2728 96.0794L92.4642 94.2964L92.0205 94.2497L92.0553 93.9229L92.8876 94.0133Z" fill="#407BFF"/>
<path d="M59.2047 88.8834C59.2732 88.8428 59.3546 88.8304 59.4319 88.8489C59.5093 88.8674 59.5764 88.9153 59.6194 88.9826V88.9826C59.6558 89.0382 59.7089 89.0807 59.771 89.1038C59.8331 89.1269 59.9009 89.1294 59.9645 89.111C60.041 89.0897 60.1228 89.0986 60.1929 89.1361C60.263 89.1736 60.3162 89.2366 60.3415 89.3124V89.3124C60.3624 89.3732 60.4015 89.426 60.4534 89.4636C60.5054 89.5013 60.5676 89.5218 60.6315 89.5225V89.5225C60.7112 89.5215 60.7883 89.5512 60.847 89.6054C60.9057 89.6596 60.9417 89.7343 60.9476 89.8143V89.8143C60.9492 89.8827 60.9735 89.9485 61.0166 90.0014C61.0597 90.0543 61.1191 90.0912 61.1854 90.1061C61.2628 90.1243 61.3303 90.1717 61.374 90.2385C61.4177 90.3052 61.4343 90.3863 61.4203 90.4651C61.4082 90.5303 61.4176 90.5977 61.4468 90.6572C61.4761 90.7167 61.5238 90.765 61.5827 90.7948C61.6525 90.8323 61.7057 90.8949 61.7315 90.9701C61.7573 91.0454 61.7539 91.1277 61.7219 91.2005V91.2005C61.6941 91.2609 61.6864 91.3288 61.7 91.394C61.7136 91.4592 61.7477 91.5182 61.7973 91.5623V91.5623C61.8561 91.6161 61.8924 91.6903 61.8988 91.7699C61.9053 91.8496 61.8814 91.9287 61.8321 91.9913V91.9913C61.79 92.0424 61.7656 92.1059 61.7624 92.1722C61.7593 92.2386 61.7776 92.3041 61.8147 92.359V92.359C61.858 92.4257 61.8746 92.5064 61.8612 92.5849C61.8477 92.6634 61.8052 92.7339 61.7422 92.7821V92.7821C61.6886 92.8213 61.6491 92.8769 61.6298 92.9406C61.6104 93.0043 61.6122 93.0727 61.6349 93.1353V93.1353C61.6617 93.2104 61.6585 93.2931 61.6261 93.366C61.5937 93.4389 61.5345 93.4963 61.4609 93.5263V93.5263C61.3999 93.5515 61.3484 93.5957 61.3139 93.6524C61.2795 93.709 61.264 93.7753 61.2695 93.8415V93.8415C61.2762 93.9211 61.2523 94.0004 61.2026 94.0628C61.153 94.1252 61.0814 94.1661 61.0027 94.1771V94.1771C60.9375 94.1857 60.8768 94.2155 60.8297 94.2618C60.7827 94.308 60.7518 94.3684 60.7417 94.4339V94.4339C60.7282 94.5128 60.6853 94.5836 60.6217 94.6319C60.5581 94.6801 60.4787 94.7022 60.3995 94.6936V94.6936C60.3339 94.6865 60.2677 94.7005 60.2104 94.7335C60.1531 94.7665 60.1077 94.8169 60.0805 94.8775V94.8775C60.0491 94.9505 59.9907 95.0085 59.9177 95.039C59.8446 95.0695 59.7626 95.0701 59.689 95.0409V95.0409C59.6272 95.0174 59.5596 95.0143 59.496 95.0321C59.4323 95.05 59.376 95.0878 59.3352 95.1401V95.1401C59.2859 95.203 59.2145 95.2445 59.1357 95.2559C59.0569 95.2673 58.9767 95.2478 58.9118 95.2014C58.8587 95.1625 58.7948 95.1415 58.7291 95.1415C58.6635 95.1415 58.5995 95.1625 58.5464 95.2014V95.2014C58.483 95.2503 58.4034 95.2727 58.324 95.2641C58.2446 95.2554 58.1715 95.2162 58.1201 95.1547V95.1547C58.077 95.1047 58.0194 95.0696 57.9554 95.0544C57.8913 95.0392 57.8242 95.0447 57.7634 95.0701V95.0701C57.6909 95.1013 57.6092 95.1033 57.5352 95.0756C57.4612 95.0479 57.4007 94.9926 57.3661 94.9212V94.9212C57.3372 94.8615 57.2901 94.8126 57.2317 94.7816C57.1733 94.7507 57.1066 94.7392 57.0413 94.749V94.749C56.9624 94.7604 56.8823 94.741 56.8171 94.6949C56.7519 94.6488 56.7066 94.5795 56.6904 94.501V94.501C56.6773 94.4363 56.6442 94.3774 56.5957 94.3328C56.5472 94.2882 56.486 94.2603 56.4207 94.2529C56.3397 94.2484 56.2637 94.2118 56.2094 94.1511C56.155 94.0904 56.1268 94.0106 56.1307 93.929V93.929C56.1342 93.8624 56.1163 93.7964 56.0798 93.7408C56.0432 93.6851 55.99 93.6427 55.9277 93.6197V93.6197C55.8533 93.5919 55.7923 93.5365 55.7572 93.4649C55.7222 93.3932 55.7157 93.3108 55.7392 93.2345V93.2345C55.7589 93.1714 55.7579 93.1037 55.7365 93.0412C55.7151 92.9787 55.6744 92.9247 55.6203 92.8872V92.8872C55.5552 92.8416 55.5099 92.7727 55.4937 92.6945C55.4775 92.6164 55.4917 92.5349 55.5333 92.467V92.467C55.5675 92.4104 55.5831 92.3444 55.5779 92.2784C55.5726 92.2124 55.5469 92.1497 55.5043 92.0993V92.0993C55.4515 92.0394 55.4238 91.9613 55.427 91.8813C55.4303 91.8013 55.4642 91.7256 55.5217 91.6703V91.6703C55.5696 91.6243 55.6017 91.5641 55.6132 91.4985C55.6246 91.4328 55.615 91.3652 55.5855 91.3055V91.3055C55.5492 91.2341 55.5419 91.1512 55.5652 91.0744C55.5884 90.9976 55.6404 90.9329 55.7102 90.894V90.894C55.7672 90.8613 55.8124 90.8111 55.839 90.7507C55.8656 90.6903 55.8723 90.623 55.8581 90.5585V90.5585C55.8413 90.48 55.8551 90.3981 55.8966 90.3296C55.9382 90.2612 56.0044 90.2114 56.0814 90.1908V90.1908C56.1457 90.1733 56.2026 90.1355 56.2438 90.0829C56.2851 90.0304 56.3085 89.9659 56.3105 89.8989V89.8989C56.3156 89.8207 56.3497 89.7473 56.4062 89.6932C56.4626 89.6391 56.5371 89.6084 56.615 89.6071V89.6071C56.6805 89.6061 56.744 89.584 56.7962 89.5441C56.8483 89.5042 56.8865 89.4486 56.905 89.3853C56.9274 89.3083 56.9786 89.243 57.0478 89.2033C57.1171 89.1635 57.199 89.1524 57.2762 89.1723V89.1723C57.3405 89.1875 57.408 89.1819 57.4689 89.1562C57.5299 89.1305 57.5812 89.0861 57.6155 89.0293V89.0293C57.6556 88.9605 57.7207 88.9102 57.797 88.8889C57.8734 88.8677 57.9549 88.8772 58.0244 88.9155V88.9155C58.0824 88.947 58.149 88.9589 58.2143 88.9495C58.2796 88.94 58.3401 88.9097 58.3869 88.863V88.863C58.445 88.808 58.5218 88.7773 58.6015 88.7773C58.6813 88.7773 58.758 88.808 58.8161 88.863V88.863C58.8686 88.9109 58.936 88.9392 59.0068 88.9429C59.0776 88.9466 59.1475 88.9256 59.2047 88.8834V88.8834Z" fill="#407BFF"/>
<path opacity="0.2" d="M58.6816 94.7201C60.1583 94.7201 61.3554 93.5155 61.3554 92.0295C61.3554 90.5435 60.1583 89.3389 58.6816 89.3389C57.2049 89.3389 56.0078 90.5435 56.0078 92.0295C56.0078 93.5155 57.2049 94.7201 58.6816 94.7201Z" fill="white"/>
<path d="M58.8244 90.6934L59.1637 91.6214L60.112 91.8665L59.3406 92.4764L59.4015 93.4598L58.5866 92.9083L57.676 93.2731L57.9457 92.3217L57.3193 91.563L58.2995 91.528L58.8244 90.6934Z" fill="#407BFF"/>
<path d="M70.5291 95.631C71.9252 94.5002 72.146 92.4446 71.0223 91.0397C69.8986 89.6347 67.8558 89.4125 66.4596 90.5433C65.0635 91.6741 64.8426 93.7297 65.9664 95.1347C67.0901 96.5396 69.1329 96.7618 70.5291 95.631Z" fill="#407BFF"/>
<path opacity="0.2" d="M70.9229 93.3631C70.8708 93.8474 70.6771 94.3053 70.3663 94.6788C70.0556 95.0524 69.6417 95.3248 69.1771 95.4616C68.7124 95.5984 68.2179 95.5935 67.7561 95.4475C67.2942 95.3016 66.8858 95.021 66.5823 94.6414C66.2789 94.2618 66.0942 93.8002 66.0515 93.3149C66.0088 92.8297 66.1101 92.3426 66.3425 91.9152C66.575 91.4879 66.9281 91.1395 67.3573 90.9142C67.7865 90.6888 68.2725 90.5966 68.7537 90.6492C69.399 90.7196 69.99 91.0452 70.3968 91.5541C70.8036 92.0631 70.9929 92.7138 70.9229 93.3631Z" fill="white"/>
<g opacity="0.2">
<path opacity="0.2" d="M68.1883 95.9086C67.6358 95.8482 67.1135 95.6243 66.6874 95.2652C66.2614 94.9061 65.9507 94.428 65.7947 93.8912C65.6386 93.3545 65.6443 92.7832 65.8109 92.2497C65.9774 91.7162 66.2975 91.2443 66.7305 90.8938C67.1636 90.5433 67.6902 90.3299 68.2438 90.2806C68.7974 90.2312 69.3531 90.3482 69.8406 90.6166C70.3281 90.885 70.7256 91.2929 70.9828 91.7887C71.24 92.2844 71.3453 92.8458 71.2855 93.4018C71.2458 93.7711 71.1341 94.1288 70.9569 94.4547C70.7798 94.7805 70.5405 95.068 70.2529 95.3008C69.9653 95.5336 69.635 95.7071 69.2807 95.8114C68.9264 95.9156 68.5552 95.9487 68.1883 95.9086V95.9086ZM68.7683 90.4573C68.2491 90.4007 67.7248 90.5004 67.2619 90.7438C66.799 90.9872 66.4183 91.3634 66.168 91.8246C65.9177 92.2859 65.809 92.8115 65.8557 93.335C65.9024 93.8584 66.1024 94.3562 66.4304 94.7652C66.7584 95.1742 67.1997 95.476 67.6982 95.6326C68.1968 95.7891 68.7303 95.7932 69.2313 95.6444C69.7322 95.4956 70.1779 95.2006 70.5121 94.7967C70.8463 94.3928 71.0539 93.8982 71.1086 93.3755C71.181 92.6775 70.9763 91.979 70.5389 91.4323C70.1016 90.8856 69.4672 90.5351 68.7741 90.4573H68.7683Z" fill="white"/>
</g>
<path d="M69.0053 93.2082L68.5964 92.1022L67.9613 93.0973L66.9434 92.0146L67.1899 93.9611L67.796 94.0253L68.3238 94.0837L68.4427 94.0983L68.9705 94.1537L69.5766 94.2208L70.2291 92.3707L69.0053 93.2082Z" fill="#407BFF"/>
<path d="M70.0818 64.5834L70.7981 63.9239L71.3781 63.9881L71.4883 63.1477L70.4385 62.9054C70.4385 62.9054 68.9885 62.7041 68.4723 62.7012C68.2606 62.7012 68.0141 62.7012 67.4254 64.0056C67.3268 64.2391 70.0818 64.5834 70.0818 64.5834Z" fill="#EEC1BB"/>
<path d="M93.7541 66.4214C93.9021 66.0877 94.088 65.7724 94.308 65.4817C94.5023 65.3095 96.2713 65.7035 96.5671 65.9457C96.8629 66.1879 96.7208 66.7366 96.7208 66.7366C96.7208 66.7366 96.2278 67.5128 95.8914 67.472C95.555 67.4311 93.8469 67.3436 93.7541 67.2181C93.6613 67.0926 93.7541 66.4214 93.7541 66.4214Z" fill="#EEC1BB"/>
</svg>
